<svg xmlns="http://www.w3.org/2000/svg" width="85" height="40" fill="none"><path fill="#6D6D6D" d="M84.721 7.41c-.083-.175-.217-.387-.435-.406-.23-.02-.38.102-.54.252-.807.755-1.462 1.652-2.263 2.411a6.769 6.769 0 0 1-.842.639 17.713 17.713 0 0 1 1.306-2.286c.145-.208.285-.412.38-.653.133-.335.14-.789-.003-1.121-.092-.215-.346-.518-.624-.395a1.025 1.025 0 0 0-.369.255c-.04.041-.077.084-.115.126a46.369 46.369 0 0 0-.79.905c-.33.389-.655.783-.978 1.177-.635.772-1.27 1.544-1.947 2.278-.189.204-.38.406-.575.604.116-.231.229-.464.339-.698.435-.928.83-1.874 1.284-2.793a20.517 20.517 0 0 1 .628-1.173c.039-.067.08-.132.118-.2.11-.195.164-.4.217-.619.056-.23.028-.608-.075-.826-.095-.2-.213-.343-.436-.406-.34-.097-.642.35-.846.57a856.235 856.235 0 0 1-1.298 1.394l-1.92 2.049c-.503.536-1.006 1.07-1.508 1.607.171-.501.339-1.004.504-1.508.148-.453.3-.905.441-1.36.16-.509.206-1.17-.163-1.61-.244-.29-.65-.37-.968-.14-.3.219-.474.595-.67.905l-.416.664c-.26.415-.52.83-.782 1.244a74.34 74.34 0 0 1-1.44 2.217c-.465.675-.953 1.35-1.548 1.916a3.346 3.346 0 0 1-.628.442 2.009 2.009 0 0 1-.509.139l.005-.026.02-.07c.073-.257.163-.509.26-.758.05-.125.102-.249.154-.373l.002-.002.095-.211c.457-.985.987-1.938 1.545-2.869.121-.201.243-.403.37-.6.13-.205.177-.47.195-.704.017-.22.01-.473-.087-.676a.854.854 0 0 0-.258-.337c-.163-.118-.395-.075-.55.03a99.557 99.557 0 0 0-4.046 2.868v-.003l.009-.093a7.737 7.737 0 0 1 .1-.687c.01-.053.039-.166.055-.236.045-.161.092-.321.15-.479l.061-.155c.027-.06.074-.165.098-.212.037-.072.077-.141.118-.212.202-.256.402-.516.595-.78.17-.233.282-.474.328-.763.04-.25.037-.59-.075-.826-.084-.176-.217-.388-.435-.406-.225-.019-.39.096-.54.252-.29.3-.538.629-.755.977a25.924 25.924 0 0 1-2.535 2.699 2.98 2.98 0 0 0-.319-1.183c-.22-.41-.53-.745-1.005-.843-.411-.085-.812.065-1.177.233-.369.17-.7.409-1.013.665-.766.629-1.45 1.346-2.091 2.098.084-.16.17-.321.25-.483.175-.353.278-.783.18-1.176-.07-.273-.194-.54-.472-.645-.438-.165-.82.279-1.088.567-.325.349-.656.69-.967 1.05a44.4 44.4 0 0 0-1.17 1.429c-.442.559-.878 1.123-1.315 1.687.292-.615.555-1.251.675-1.916.088-.493.08-1.11-.246-1.523-.24-.305-.59-.378-.957-.303-.198.04-.384.132-.566.214a5.325 5.325 0 0 0-.529.28c-.293.175-.576.365-.853.563a.735.735 0 0 0-.15-.244c-.142-.147-.352-.277-.568-.205a13.789 13.789 0 0 0-4.42 2.434 14.967 14.967 0 0 0-1.922 1.871c-.645.763-1.25 1.58-1.643 2.503-.162.38-.272.8-.314 1.221-.665.508-1.333 1.012-2.002 1.514a174.336 174.336 0 0 0 2.73-4.289c.267-.436.536-.872.783-1.321.13-.239.266-.484.356-.741.15-.434.18-1.024-.145-1.396a.62.62 0 0 0-.59-.216c-.183.026-.324.158-.455.27-.218.186-.4.42-.582.64a34.49 34.49 0 0 0-.408.503 3.026 3.026 0 0 0-.365-.691 1.732 1.732 0 0 0-.641-.561c-.948-.45-1.968.06-2.746.62-.75.541-1.425 1.18-2.073 1.84a1.01 1.01 0 0 0-.091.078c-.12.116-.247.227-.377.332a3.387 3.387 0 0 1-.617.354c-.178.057-.36.094-.546.109a2.447 2.447 0 0 1-.309-.026 5.87 5.87 0 0 0 .003-.238c-.007-.78-.207-1.65-.714-2.266a1.382 1.382 0 0 0-1.21-.504c-.249.023-.47.14-.655.304a.558.558 0 0 0-.28.09 21.888 21.888 0 0 0-3.789 3.215.629.629 0 0 0-.073.071l-.076.087c-.286.31-.563.63-.832.956-1.252 1.426-2.54 2.822-3.944 4.1-.501.457-1.018.896-1.552 1.314a16.88 16.88 0 0 1-1.975 1.31c-.225.127-.395.378-.483.613-.097.257-.134.611-.055.879.066.225.182.484.407.593a.676.676 0 0 0 .649-.013c1.429-.8 2.725-1.84 3.931-2.939.335-.305.664-.618.987-.936.014.06.03.12.05.18.22.69.691 1.307 1.37 1.606.67.296 1.414.315 2.121.13 1.95-.508 3.37-1.982 4.394-3.652-.123.575-.174 1.16-.027 1.744.16.643.56 1.27 1.26 1.398.51.094 1.017-.13 1.46-.356.65-.33 1.238-.79 1.786-1.279-.26.39-.522.777-.784 1.165a174.06 174.06 0 0 0-2.817 2.175 142.301 142.301 0 0 0-7.162 2.103 117.89 117.89 0 0 0-7.053 2.515c-1.053.413-2.1.844-3.138 1.294-.989.43-1.97.876-2.942 1.344-.913.44-1.818.897-2.712 1.376a52.899 52.899 0 0 0-3.644 2.127l.018-.025a565.749 565.749 0 0 0 3.28-4.565c.818-1.15 1.635-2.3 2.455-3.448l.115-.08a89.955 89.955 0 0 0 3.131-2.348 114.545 114.545 0 0 0 3.21-2.602 128.45 128.45 0 0 0 6.585-5.935 100.458 100.458 0 0 0 3.086-3.117c.946-1 1.87-2.02 2.756-3.073a48.037 48.037 0 0 0 2.429-3.104c.316-.445.622-.898.912-1.36.364-.579.773-1.194.956-1.854.142-.515.25-1.086.074-1.61-.081-.24-.18-.474-.368-.656a1.358 1.358 0 0 0-.603-.342c-.29-.091-.629-.061-.924-.003a4.634 4.634 0 0 0-1.06.372c-.844.396-1.605.963-2.325 1.547a30.641 30.641 0 0 0-2.05 1.847 94.898 94.898 0 0 0-3.89 4.019 113.05 113.05 0 0 0-3.61 4.156 155.205 155.205 0 0 0-3.536 4.444 223.778 223.778 0 0 0-3.264 4.368 428.778 428.778 0 0 0-2.56 3.55 40.144 40.144 0 0 1-2.574 1.675c-.6.354-1.217.696-1.866.955a2.79 2.79 0 0 1-.652.167.829.829 0 0 1-.059-.007.458.458 0 0 0-.231-.026.505.505 0 0 0-.327.085c-.218.12-.406.38-.484.612-.093.276-.139.594-.055.879.063.21.183.511.409.594.133.048.256.102.397.112.154.01.312.004.466-.016.222-.029.44-.096.65-.172.432-.156.85-.344 1.256-.55l-.775 1.087a399.785 399.785 0 0 1-3.285 4.536c-.561.762-1.126 1.52-1.695 2.275-.345.457-.78.918-.85 1.51-.043.367 0 .785.262 1.07.17.186.423.271.672.223.264-.051.484-.24.684-.403.295-.243.592-.483.894-.718a40.361 40.361 0 0 1 2.37-1.676 51.527 51.527 0 0 1 2.81-1.714 64.726 64.726 0 0 1 3.122-1.66 79.5 79.5 0 0 1 3.45-1.614 95.387 95.387 0 0 1 4.078-1.68 116.436 116.436 0 0 1 4.54-1.632c1.494-.503 2.998-.977 4.51-1.427a61.728 61.728 0 0 0-2.162 2.002c-.973.947-1.943 1.915-2.762 3-.924 1.224-1.664 2.593-1.985 4.103-.159.749-.162 1.603.181 2.305.161.328.4.65.737.813.246.12.507.195.78.19.29-.004.56-.038.831-.142.29-.111.567-.24.829-.408a8.02 8.02 0 0 0 1.354-1.125c.942-.957 1.663-2.098 2.39-3.218 1.52-2.342 3.08-4.658 4.646-6.97.52-.769 1.043-1.538 1.564-2.307a172.85 172.85 0 0 1 4.868-1.154 189.62 189.62 0 0 1 5.88-1.208 217.41 217.41 0 0 1 4.253-.76c-.285.758-.508 1.544-.543 2.352a2.6 2.6 0 0 0 .053.631c.065.318.28.669.644.652.36-.017.642-.388.737-.709a52.19 52.19 0 0 1 1.087-3.248c9.437-1.496 18.97-2.996 28.518-3.37.542-.02.873-.366.849-.681-.036-.462-.281-.767-.886-.767-9.18.36-18.31 1.362-27.446 2.406a58.339 58.339 0 0 1 1.992-3.35c.076.236.174.466.303.68.157.259.36.51.645.635.303.134.602.165.928.087.656-.155 1.21-.63 1.693-1.07.546-.497 1.03-1.062 1.488-1.639a34.11 34.11 0 0 0 1.353-1.829 20.49 20.49 0 0 1 1.509-1.598c.6-.574 1.215-1.133 1.808-1.713-.023.323-.031.644-.027.963a30.612 30.612 0 0 0-2.556 2.247c-.535.534-1.08 1.124-1.426 1.802-.214.42-.348.86-.36 1.333-.01.355.073.75.298 1.035.313.396.804.418 1.264.37.426-.043.843-.187 1.233-.359a7.064 7.064 0 0 0 1.475-.85c.51-.393.953-.852 1.287-1.405a3.473 3.473 0 0 0 .453-2.3c-.038-.246-.08-.49-.118-.734a78.161 78.161 0 0 1 1.69-1.239l-.045.096c-.277.611-.55 1.235-.717 1.887-.185.72-.335 1.531-.036 2.245.103.247.28.5.53.62.289.135.552.136.864.081.471-.081.921-.335 1.29-.63.51-.411.948-.904 1.348-1.42.554-.717 1.056-1.475 1.55-2.233l.174-.27a53.352 53.352 0 0 1-.74 1.938 19.168 19.168 0 0 1-.228.545c-.036.085-.156.358.006-.01-.123.28-.212.542-.208.854.004.221.055.545.21.722.128.145.308.263.514.197a.863.863 0 0 0 .479-.423c.184-.24.399-.464.6-.687.45-.502.909-.996 1.368-1.49.697-.75 1.398-1.498 2.099-2.245-.098.19-.2.379-.303.566-.145.257-.314.504-.437.772-.241.527-.38 1.104-.266 1.683.071.361.261.764.6.946.354.19.703.126 1.045-.047.284-.143.505-.382.733-.599a26.935 26.935 0 0 0 1.808-1.926c.102.39.356.754.72.94.168.084.362.163.554.172a1.15 1.15 0 0 0 .73-.2c.67-.42 1.252-.974 1.782-1.556.56-.613 1.082-1.257 1.69-1.825.182-.17.291-.53.328-.762.04-.25.036-.59-.076-.827Zm-66.77 8.842.3-.377a124.794 124.794 0 0 1 4.194-5.015 97.715 97.715 0 0 1 4.614-4.878c.86-.847 1.74-1.685 2.694-2.43.59-.444 1.221-.865 1.907-1.146a2.9 2.9 0 0 1 .476-.125c-.255.473-.548.93-.844 1.377-.364.551-.748 1.09-1.144 1.618-.206.274-.416.545-.628.814a62.317 62.317 0 0 1-2.762 3.214 92.986 92.986 0 0 1-3.267 3.381 118.696 118.696 0 0 1-3.524 3.335 128.59 128.59 0 0 1-5.337 4.591 188.773 188.773 0 0 1 3.322-4.359Zm24.794-.958a13.855 13.855 0 0 1 2.077-2.203 13.435 13.435 0 0 1 2.99-1.854c.004.047.011.094.02.138-.121.34-.257.675-.406 1.005a13.627 13.627 0 0 1-1.26 2.118 12.934 12.934 0 0 1-1.95 2.058c-.348.285-.714.56-1.12.754-.14.051-.283.087-.43.105a1.296 1.296 0 0 1-.26-.042 1.242 1.242 0 0 1-.179-.107 1.567 1.567 0 0 1-.127-.15 1.98 1.98 0 0 1-.071-.151 2.18 2.18 0 0 1-.035-.154 2.475 2.475 0 0 1-.002-.072c.008-.058.017-.117.029-.175.03-.097.066-.191.105-.285a7.38 7.38 0 0 1 .619-.985ZM28.797 18.11c-.34.413-.716.794-1.136 1.127a5.596 5.596 0 0 1-1.15.64 3.8 3.8 0 0 1-.973.214 2.344 2.344 0 0 1-.6-.087 2.01 2.01 0 0 1-.368-.206 1.825 1.825 0 0 1-.157-.167 1.758 1.758 0 0 1-.066-.124l-.019-.068a2.051 2.051 0 0 1-.003-.079c.007-.049.015-.097.024-.146a3.66 3.66 0 0 1 .14-.362c.3-.57.695-1.094 1.096-1.6.078-.098.158-.194.238-.29.198-.226.394-.453.59-.68a20.904 20.904 0 0 1 2.646-2.453l.292-.215a3.758 3.758 0 0 0 1.044 1.527c-.149.42-.326.832-.518 1.233a11.047 11.047 0 0 1-1.08 1.736Zm5.262.39c-.431.345-.892.665-1.398.889-.109.04-.218.071-.333.088a.917.917 0 0 1-.115-.017c-.017-.01-.035-.019-.052-.03l-.011-.013-.012-.023-.016-.064a2.431 2.431 0 0 1-.004-.146c.013-.096.032-.192.053-.288a6.75 6.75 0 0 1 .343-.945c.23-.46.506-.892.81-1.307.426-.556.89-1.076 1.373-1.583a6.66 6.66 0 0 0 .438-.385c.08-.077.148-.173.205-.276.392-.394.797-.776 1.225-1.13a5.57 5.57 0 0 1 1.12-.716c.155-.057.313-.098.477-.116.073.005.145.015.216.032.052.026.102.055.15.088.039.04.075.083.11.127.024.047.047.095.068.143.021.077.039.154.053.232.004.064.006.128.005.192l-.008.079c-1.173 1.465-2.352 2.934-3.691 4.253-.323.318-.657.626-1.006.916Zm-6.883 13.393c-.523.796-1.022 1.611-1.565 2.394a19.82 19.82 0 0 1-.374.52 9.918 9.918 0 0 1-1.446 1.544c-.267.208-.55.396-.858.539-.159.058-.323.1-.491.118a1.318 1.318 0 0 1-.247-.036 1.63 1.63 0 0 1-.117-.062l-.03-.038a1.461 1.461 0 0 1-.04-.083 1.596 1.596 0 0 1-.018-.077 2.573 2.573 0 0 1-.003-.152c.015-.131.037-.261.065-.39a7.86 7.86 0 0 1 .4-1.1c.288-.58.634-1.13 1.018-1.652.778-1.012 1.703-1.92 2.616-2.81a64.7 64.7 0 0 1 2.937-2.68 88.514 88.514 0 0 1 1.646-1.38l.177-.142a634.008 634.008 0 0 0-2.057 3.054c-.541.809-1.08 1.62-1.613 2.433Zm13.127-10.57c-1.357.288-2.71.591-4.06.91.967-.724 1.934-1.445 2.9-2.17.586-.439 1.17-.881 1.753-1.325.28.427.64.746 1.152.885.53.144 1.087-.04 1.558-.274.38-.189.721-.452 1.05-.717a14.72 14.72 0 0 0 1.047-.918 14.365 14.365 0 0 0 1.703-2.023 14.34 14.34 0 0 0 2.04-4.232c.269-.2.54-.397.82-.584.172-.116.348-.23.528-.335-.344.744-.73 1.469-1.117 2.191-.463.864-.935 1.723-1.387 2.592-.236.455-.467.913-.684 1.377-.107.23-.183.447-.2.703-.016.22-.004.475.098.677a.89.89 0 0 0 .278.34c.174.12.414.079.582-.024.275-.169.52-.39.757-.606.247-.225.478-.466.704-.712a35.834 35.834 0 0 0 1.611-1.919c.36-.453.715-.91 1.069-1.368a90.329 90.329 0 0 0-2.244 5.001c-.128.247-.254.495-.377.745l-.644.105a207.92 207.92 0 0 0-4.544.803 196.32 196.32 0 0 0-4.393.878Zm16.696-7.249a9 9 0 0 1-.482.46 3.713 3.713 0 0 1-.684.46 1.4 1.4 0 0 1-.288.078.831.831 0 0 1-.12-.017.767.767 0 0 1-.062-.038 1.156 1.156 0 0 1-.08-.1 2.045 2.045 0 0 1-.081-.187 4.608 4.608 0 0 1-.124-.628l-.009-.1a40.335 40.335 0 0 1 1.801-2.4c.455-.556.926-1.1 1.43-1.612.226-.23.46-.455.704-.668.3-.251.622-.488.974-.66.115-.045.235-.079.357-.096.04.003.08.008.12.017.02.01.04.022.059.035a.97.97 0 0 1 .04.048c.014.03.027.062.04.093.012.05.023.099.033.149l.001.092a2.695 2.695 0 0 1-.013.08 2.113 2.113 0 0 1-.045.126c-.163.312-.374.608-.564.902a45.946 45.946 0 0 1-1.187 1.75c-.561.773-1.152 1.532-1.82 2.216Zm6.843-1.057-.014.03a.616.616 0 0 1 .004-.018c.076-.18.044-.083.01-.012Zm-.046.091a2.425 2.425 0 0 1-.091.16 3.68 3.68 0 0 1-.383.434 5.848 5.848 0 0 1-1.329.876 5.11 5.11 0 0 1-.766.281 16.624 16.624 0 0 1 .988-.982c.485-.442.986-.868 1.497-1.283l.084.514Zm16.459-1.927c-.008.023-.016.046-.026.069-.082.185-.035.075.026-.069Z"/></svg>