<svg xmlns="http://www.w3.org/2000/svg" width="124" height="32" fill="none"><g fill="#6D6D6D" clip-path="url(#a)"><path d="M11.45 24.033a10.42 10.42 0 0 0 .026.829h4.972a3.853 3.853 0 0 1-.066-.829H11.45Zm-6.068 0v.829H.664v-.829h4.718Zm6.11-.843h5.005c.063-.242.153-.471.269-.69a3.22 3.22 0 0 1 .085-.139h-5.238a8.48 8.48 0 0 0-.12.829Zm-6.11-.829v.829H.664v-.829h4.718Zm5.625-.843c-.197-.188-.47-.332-.822-.433-.386-.1-.936-.15-1.651-.15H5.382v.583H.664v-.828h10.593v.828h-.25Zm.821 0h5.844c.068-.046.138-.09.21-.133.473-.271 1.016-.407 1.63-.407.615 0 1.151.136 1.609.407.073.042.143.087.21.133h5.83a7.417 7.417 0 0 0-.208-.561 7.855 7.855 0 0 0-.113-.267H12.146a7.035 7.035 0 0 0-.317.828Zm.77-1.671h13.799a7.077 7.077 0 0 0-.59-.829H13.194a7.358 7.358 0 0 0-.597.829Zm1.425-1.672h10.958a7.32 7.32 0 0 0-1.17-.829h-8.613a7.67 7.67 0 0 0-1.175.83Zm-2.765-.829v.83H.58a3.52 3.52 0 0 0-.086-.393 2.12 2.12 0 0 0-.162-.437h10.926Zm21.258 0-.06.03a7.77 7.77 0 0 0-1.292.8h10.547l.008-.028c.1-.315.258-.558.472-.73v-.072h-9.675Zm13.634 0c-.418.241-.81.517-1.173.83h10.958a7.324 7.324 0 0 0-1.17-.83h-8.614Zm33.06 0h6.7a4.375 4.375 0 0 1 1.106.829H79.21v-.829Zm-13.44 0h5.391c-.066.121-.125.26-.177.416-.04.12-.074.258-.102.413H66a4 4 0 0 0-.075-.392 2.47 2.47 0 0 0-.155-.437Zm-6.395 0h5.326a2.47 2.47 0 0 0-.154.437 3.97 3.97 0 0 0-.075.392h-4.868a3.972 3.972 0 0 0-.075-.392 2.47 2.47 0 0 0-.154-.437Zm-2.62 1.672H44.144a7.333 7.333 0 0 0-.597.829h13.8a7.102 7.102 0 0 0-.592-.829Zm2.923.829v-.413c0-.145-.002-.284-.006-.416h4.73c-.004.132-.006.271-.006.416v.413h-4.718Zm-1.888.843H43.094a6.507 6.507 0 0 0-.317.828h5.843c.068-.046.138-.09.211-.133.472-.271 1.015-.407 1.63-.407.614 0 1.15.136 1.608.407.073.042.143.087.21.133h5.83a7.289 7.289 0 0 0-.207-.561 7.855 7.855 0 0 0-.114-.267Zm1.886.828v-.828h4.717v.828h-4.717Zm-1.345.843h-5.249c.028.046.055.092.08.14a3.1 3.1 0 0 1 .285.689h5.01a8.378 8.378 0 0 0-.126-.829Zm1.345.829v-.829h4.717v.829h-4.717Zm-1.174.843H53.57a3.903 3.903 0 0 1-.07.829h4.975a9.487 9.487 0 0 0 .027-.829Zm1.174.829v-.829h4.717v.829h-4.717Zm-1.305.843h-5.174l-.031.055a2.818 2.818 0 0 1-.615.773h5.626c.08-.269.144-.545.194-.828Zm1.305.828v-.828h4.717v.828h-4.717Zm-1.804.844H43.008c.123.288.261.564.414.828h14.047c.15-.264.283-.54.403-.828Zm1.804.828v-.828h4.717v.828h-4.717Zm-2.765.843H43.988a7.331 7.331 0 0 0 .753.829h11.422l.088-.086a7.12 7.12 0 0 0 .66-.743Zm2.718.829a8.95 8.95 0 0 0 .048-.829h4.72c.006.31.022.587.048.829H59.63Zm-4.546.843h-9.255c.427.273.885.507 1.374.701.986.386 2.072.579 3.259.579 1.172 0 2.252-.193 3.238-.579a7.906 7.906 0 0 0 1.384-.701Zm-14.565-.843v-.829H30.055c.252.3.531.576.836.829h9.627Zm-8.354.843h8.355v1.087c-.314-.1-.629-.15-.944-.15a7.03 7.03 0 0 0-.922.086 9.345 9.345 0 0 1-1.35.085c-1.845 0-3.431-.307-4.761-.922a8.29 8.29 0 0 1-.378-.186Zm-6.951-.843.089-.086c.238-.233.458-.48.66-.743H13.039a7.342 7.342 0 0 0 .753.829h11.421Zm-10.334.843h9.255a7.905 7.905 0 0 1-1.384.701c-.987.386-2.066.579-3.238.579-1.187 0-2.273-.193-3.26-.579a8.064 8.064 0 0 1-1.373-.701Zm-9.44-.843a7.527 7.527 0 0 1-.057-.829H.661a8.85 8.85 0 0 1-.048.829H5.44Zm-5.005.843h5.223c.116.273.26.479.431.615v.193H.062v-.193c.154-.142.278-.347.372-.615Zm.23-2.515h4.718v-.828H.664v.828Zm0-1.672h4.718v-.828H.664v.828Zm10.914-.828c.049.283.111.56.187.828H17.4a2.99 2.99 0 0 1-.662-.828h-5.16Zm10.666 0-.031.055a2.818 2.818 0 0 1-.615.773h5.626c.08-.269.144-.545.194-.828h-5.174Zm6.296 0c.048.285.111.561.187.828h5.728a2.71 2.71 0 0 1-.719-.828H28.54Zm4.883-.843h-4.986a10.51 10.51 0 0 1-.03-.817v-.012h4.931c0 .294.03.57.085.829Zm8.664 0h-5.415c.152-.185.269-.443.352-.775a3.92 3.92 0 0 0 .013-.054h4.67l.013.054c.083.332.205.59.367.775Zm.44.843c.049.283.111.56.187.828h5.636a2.99 2.99 0 0 1-.663-.828h-5.16Zm4.871-.843h-4.973a9.858 9.858 0 0 1-.026-.829h4.933a3.903 3.903 0 0 0 .066.829Zm.052-1.672a3.23 3.23 0 0 1 .269-.69c.027-.047.055-.093.085-.139h-5.238a8.48 8.48 0 0 0-.12.829h5.004Zm-5.857 0a11.58 11.58 0 0 1-.022-.754v-.075h-4.396v.075c0 .276-.008.527-.023.754h4.44Zm-8.169 0c.064-.296.165-.572.302-.829h-5.16a8.112 8.112 0 0 0-.12.829h4.978Zm-5.917 0a8.378 8.378 0 0 0-.125-.829h-5.25a3.126 3.126 0 0 1 .364.829h5.01Zm-4.887.843a3.903 3.903 0 0 1-.07.829h4.976a9.487 9.487 0 0 0 .027-.829H22.62Zm6.165-2.515h5.656c.172-.14.362-.262.569-.368.543-.258 1.18-.386 1.908-.386.087 0 .172 0 .258.002v.752h4.396v-.828H29.117a6.811 6.811 0 0 0-.332.828Zm.813-1.671H41.57v-.22c0-.223.006-.426.017-.609H30.246a7.02 7.02 0 0 0-.648.829Zm10.924 7.53H29.027c.124.288.265.564.425.828h11.07v-.828Zm-14.002.828c.149-.264.283-.54.403-.828H12.059c.123.288.261.564.414.828h14.046Zm32.93 2.515h5.175c.094.268.218.473.371.615v.193h-5.918v-.193c.153-.142.277-.347.372-.615Zm6.372 0c-.1.268-.237.473-.412.615v.193h6.883c1.287 0 2.388-.207 3.303-.622.135-.058.266-.12.392-.186H65.823Zm14.846 0c.991.653 2.32.98 3.988.98.386 0 .736-.022 1.051-.065.315-.043.55-.064.707-.064.244 0 .508.05.794.15V30.72h-6.54Zm6.54-.843h-7.486a3.562 3.562 0 0 1-.507-.829h7.993v.829Zm1.504.843c-.095.268-.219.473-.372.615v.193h5.897v-.193c-.153-.142-.277-.347-.372-.615h-5.153Zm4.988-.843h-4.81c.028-.242.043-.518.049-.829h4.72c.004.31.018.587.041.829Zm2.546.843c-.088.268-.215.473-.379.615v.193h5.919v-.193a1.438 1.438 0 0 1-.392-.615h-5.148Zm4.967-.843h-4.795c.027-.242.043-.518.048-.829h4.7c.005.31.021.587.047.829Zm1.254.843c-.11.27-.256.475-.44.615v.193h5.168v-.15a1.479 1.479 0 0 1-.2-.658h-4.528Zm4.763-.843h-4.562c.03-.24.05-.517.059-.829h5.239l-.3.293a2.96 2.96 0 0 0-.436.536Zm6.702.843a1.588 1.588 0 0 1-.198.658v.15h5.104v-.193c-.172-.14-.316-.345-.432-.615h-4.474Zm4.262-.843h-4.466a2.666 2.666 0 0 0-.467-.579l-.249-.25h5.122c.01.312.03.588.06.829Zm-.063-1.672v-.828h-6.779l.824.828h5.955Zm-9.3 0 .851-.828h-6.948v.828h6.097Zm-7.666 0v-.828h-4.696v.828h4.696Zm-7.506 0v-.828h-4.718v.828h4.718Zm-6.452 0v-.828h-.555a1.837 1.837 0 0 1-.324.184 1.657 1.657 0 0 1-.27.086l-.034.008a2.88 2.88 0 0 1-.061.013 1.349 1.349 0 0 1-.429.065c-.329 0-.586-.079-.772-.236a.979.979 0 0 1-.12-.12h-5.755c0 .289.024.565.072.828h8.248Zm-8.988 0c.09-.262.158-.538.204-.828h-5.45c-.287.137-.649.206-1.088.206h-1.093v-.206h-4.718v.828H78.22Zm-12.145.843c-.006.31-.024.587-.055.829H77.16a4.393 4.393 0 0 0 .66-.829H66.074Zm0-2.515h4.718v-.828h-4.718v.828Zm0-1.671h4.718v-.829h-4.718v.829Zm0-1.672H77.48a5.647 5.647 0 0 0-.756-.829h-10.65v.829Zm0-1.672h9.492a11.23 11.23 0 0 0-1.792-.828h-7.7v.828Zm.003-1.671h4.914l-.197-.057v-.356c0-.145.003-.284.008-.416H66.07c.005.132.007.271.007.416v.413Zm13.133-.829v.829h8.78a3.99 3.99 0 0 0-.345-.829h-8.434Zm10.429 0c-.14.26-.26.536-.358.829h11.542a5.29 5.29 0 0 0-.359-.829H89.639Zm13.088 0c.004.132.006.271.006.416v.413h4.589v-.413c0-.145.002-.284.006-.416h-4.601Zm4.671-.843h-4.739a4.158 4.158 0 0 0-.075-.392 2.47 2.47 0 0 0-.154-.437h5.197a2.393 2.393 0 0 0-.154.437c-.03.118-.055.248-.075.392Zm6.157.843c.004.132.006.271.006.416v.413h4.568v-.413c0-.145.002-.284.006-.416h-4.58Zm4.649-.843h-4.716a3.848 3.848 0 0 0-.076-.392 2.25 2.25 0 0 0-.158-.437h5.184a2.25 2.25 0 0 0-.158.437 4.143 4.143 0 0 0-.076.392Zm-19.192-.829h-7.91a4.902 4.902 0 0 0-.891.83h9.694a4.759 4.759 0 0 0-.893-.83Zm19.118 3.344h-4.568v.828h4.568v-.828Zm0 1.671h-4.568v.829h4.568v-.829Zm.001 1.672h-4.568v.088l-.089-.088h-10.74v.829h15.397v-.829Zm0 1.672h-15.397v.828h15.397v-.828Zm-16.966.828v-.828h-4.696v.828h4.696Zm-7.506 0v-.828h-4.718v.828h4.718Zm-9.077 0c.027-.051.059-.102.096-.151.143-.158.371-.365.686-.622l.074-.055h-6.213c-.115.27-.2.546-.256.828h5.613Zm-6.092 0 .001-.065a6.62 6.62 0 0 0-.043-.763H73.68a1.85 1.85 0 0 1 .007.828h4.804Zm-5.337-1.671h5.136a5.104 5.104 0 0 0-.304-.829h-6.72l.13.033c.799.21 1.385.476 1.758.796Zm7.312-.829a5.135 5.135 0 0 0-.758.829h6.794a6.015 6.015 0 0 0 .74-.829h-6.776Zm8.476 0v.829h4.718v-.829h-4.718Zm4.718-.843h-4.718v-.829h4.725a3.4 3.4 0 0 0-.007.225v.604Zm2.81.843v.829h4.696v-.829h-4.696Zm4.695-.843h-4.696v-.604a3.4 3.4 0 0 0-.007-.225h4.703v.829Zm1.57 0h4.589v-.829h-4.589v.829Zm0-1.672h4.589v-.828h-4.589v.828Zm-1.695-.828H89.065c-.05.265-.084.541-.104.828h4.922c.035-.063.075-.121.118-.175.243-.286.593-.43 1.05-.43.458 0 .808.144 1.052.43.045.054.087.112.124.175h4.915a7.623 7.623 0 0 0-.103-.828Zm-12.874.828a5.467 5.467 0 0 0-.016-.828h-6.043c.095.043.18.096.257.16.234.181.362.404.383.668h5.42Zm-5.691.843a.812.812 0 0 1-.026.032c-.168.205-.464.47-.885.797h6.176a4.537 4.537 0 0 0 .297-.829h-5.562Zm-1.979-1.671h-1.284v.738h.171l.322-.321a1.87 1.87 0 0 1 .365-.215c.13-.075.272-.143.426-.202Zm28.555 1.671-.945.829h4.51l-.843-.829h-2.722Zm1.865-.843h-.903l.421-.368h.107l.375.368ZM.656 19.018h10.6v.829H.665v-.413c0-.145-.003-.284-.008-.416ZM121.788 0c-.267 0-.512.045-.734.135a1.714 1.714 0 0 0-.973.942c-.09.219-.136.458-.136.719 0 .26.046.5.136.718a1.698 1.698 0 0 0 .973.947c.222.087.467.13.734.13.264 0 .509-.043.734-.13a1.69 1.69 0 0 0 .973-.947 1.87 1.87 0 0 0 .135-.718c0-.26-.045-.5-.135-.719a1.714 1.714 0 0 0-.973-.942 1.956 1.956 0 0 0-.734-.135Zm-.687 2.925a1.124 1.124 0 0 1-.458-.453 1.37 1.37 0 0 1-.162-.676c0-.26.054-.486.162-.677.107-.194.26-.345.458-.453.194-.107.424-.161.687-.161.26 0 .489.054.687.161.194.108.347.259.458.453.108.19.161.416.161.677 0 .256-.053.482-.161.676a1.174 1.174 0 0 1-.458.453 1.417 1.417 0 0 1-.687.161c-.263 0-.493-.053-.687-.161Zm.14-1.431h.037a.257.257 0 0 1 .104-.068.364.364 0 0 1 .115-.016.33.33 0 0 1 .172.047.336.336 0 0 1 .114.125.39.39 0 0 1 .042.182c0 .111-.03.202-.089.271a.315.315 0 0 1-.245.104.277.277 0 0 1-.218-.099h-.036v.708a.47.47 0 0 0 .129.031c.052.007.108.01.167.01.215 0 .406-.041.572-.124a.974.974 0 0 0 .385-.36 1.01 1.01 0 0 0 .141-.535c0-.198-.043-.373-.13-.526a.896.896 0 0 0-.364-.354 1.075 1.075 0 0 0-.532-.13 1.45 1.45 0 0 0-.124.005.65.65 0 0 1-.24-.01v.739Z"/><path fill-rule="evenodd" d="M12.028 12.508c-.386-.958-.579-2.016-.579-3.174s.193-2.215.58-3.173c.4-.958.957-1.787 1.672-2.488a7.82 7.82 0 0 1 2.552-1.63c.986-.385 2.072-.578 3.259-.578 1.172 0 2.252.193 3.238.579a7.506 7.506 0 0 1 2.552 1.63 7.202 7.202 0 0 1 1.65 2.487c.401.958.601 2.015.601 3.173s-.2 2.216-.6 3.174a7.217 7.217 0 0 1-1.651 2.487 7.506 7.506 0 0 1-2.552 1.63c-.986.386-2.066.58-3.238.58-1.187 0-2.273-.194-3.26-.58a7.794 7.794 0 0 1-2.551-1.63 7.478 7.478 0 0 1-1.673-2.487Zm10.593-3.174c0-.614-.136-1.158-.407-1.63A2.828 2.828 0 0 0 21.12 6.59c-.457-.272-.993-.408-1.608-.408-.615 0-1.158.136-1.63.408a2.982 2.982 0 0 0-1.115 1.115c-.257.471-.386 1.015-.386 1.63 0 .6.129 1.143.386 1.629.272.472.643.843 1.115 1.115s1.015.408 1.63.408 1.15-.136 1.608-.408a2.828 2.828 0 0 0 1.094-1.115c.271-.486.407-1.03.407-1.63Z" clip-rule="evenodd"/><path d="M8.534 12.53H5.382V4.637c0-.729.065-1.286.193-1.672.129-.386.3-.665.515-.837v-.193H.064v.193c.2.186.35.48.45.88.1.385.15.929.15 1.63v9.391c0 .7-.056 1.251-.17 1.652-.1.385-.265.671-.494.857v.193h9.392c.343 0 .68.015 1.008.043.329.029.615.079.858.15v-5.06h-.172c-.2.228-.5.4-.9.514-.386.1-.937.15-1.652.15Zm28.492-3.153c.1.386.15.937.15 1.651v1.67c-.085.002-.17.003-.257.003-.729 0-1.365-.129-1.908-.386a3.085 3.085 0 0 1-1.244-1.136c-.286-.5-.429-1.08-.429-1.737 0-.7.157-1.301.472-1.802.314-.5.779-.879 1.394-1.136.629-.272 1.394-.408 2.294-.408.372 0 .7.022.987.065.3.043.572.107.815.193.185.057.364.136.536.236.185.085.35.193.493.321h.193V1.658c-.315.1-.63.15-.944.15-.214 0-.522-.029-.922-.086a9.332 9.332 0 0 0-1.35-.086c-1.845 0-3.432.308-4.761.922-1.33.615-2.352 1.501-3.067 2.66-.714 1.157-1.072 2.558-1.072 4.202 0 1.53.358 2.867 1.072 4.01.715 1.144 1.709 2.03 2.981 2.66 1.287.628 2.78.943 4.482.943.929 0 1.844-.065 2.744-.193.901-.129 1.737-.33 2.51-.6v-.194c-.215-.171-.372-.414-.472-.729-.1-.314-.15-.808-.15-1.48v-2.809c0-.714.05-1.265.15-1.65.1-.4.257-.694.471-.88v-.193h-5.618v.193c.2.186.35.48.45.88Z"/><path fill-rule="evenodd" d="M42.977 12.508c-.386-.958-.579-2.016-.579-3.174s.193-2.215.58-3.173c.4-.958.957-1.787 1.672-2.488a7.83 7.83 0 0 1 2.552-1.63c.986-.385 2.073-.578 3.26-.578 1.171 0 2.25.193 3.237.579a7.506 7.506 0 0 1 2.552 1.63 7.204 7.204 0 0 1 1.651 2.487c.4.958.6 2.015.6 3.173s-.2 2.216-.6 3.174a7.217 7.217 0 0 1-1.651 2.487 7.507 7.507 0 0 1-2.552 1.63c-.986.386-2.066.58-3.238.58-1.186 0-2.273-.194-3.26-.58a7.793 7.793 0 0 1-2.551-1.63 7.477 7.477 0 0 1-1.673-2.487ZM53.57 9.334c0-.614-.135-1.158-.407-1.63a2.827 2.827 0 0 0-1.094-1.114c-.457-.272-.993-.408-1.608-.408-.615 0-1.158.136-1.63.408a2.981 2.981 0 0 0-1.115 1.115c-.257.471-.386 1.015-.386 1.63 0 .6.13 1.143.386 1.629a2.99 2.99 0 0 0 1.115 1.115c.472.272 1.015.408 1.63.408s1.151-.136 1.608-.408a2.828 2.828 0 0 0 1.094-1.115 3.28 3.28 0 0 0 .407-1.63Z" clip-rule="evenodd"/><path d="M59.528 3.008c.1.386.15.93.15 1.63v9.392c0 .7-.05 1.251-.15 1.652-.1.385-.25.671-.45.857v.193h5.918v-.193c-.2-.186-.35-.472-.45-.858-.1-.4-.15-.95-.15-1.65V4.637c0-.7.05-1.244.15-1.63.1-.4.25-.693.45-.879v-.193h-5.918v.193c.2.186.35.48.45.88Z"/><path fill-rule="evenodd" d="M70.985 15.703c.13.386.3.665.515.836v.193h-6.025v-.193c.2-.186.35-.472.45-.858.1-.4.15-.95.15-1.65V4.637c0-.7-.057-1.244-.172-1.63-.1-.4-.264-.693-.493-.879v-.193h6.883c1.287 0 2.388.208 3.303.622.929.4 1.644.98 2.144 1.737.5.743.75 1.644.75 2.702 0 1.015-.214 1.916-.643 2.702-.428.786-1.086 1.472-1.972 2.058-.887.572-2.023 1.051-3.41 1.437l-1.672.48v.356c0 .73.064 1.287.192 1.673Zm.408-6.304-.6.152V5.88h1.093c.6 0 1.058.13 1.373.387.314.243.471.593.471 1.05 0 .515-.186.937-.557 1.266-.372.329-.965.6-1.78.815Z" clip-rule="evenodd"/><path d="M87.04 6.375h.17V1.743c-.285.1-.55.15-.793.15-.157 0-.393-.02-.707-.064a7.823 7.823 0 0 0-1.051-.064c-1.83 0-3.252.393-4.268 1.18-1 .771-1.5 1.822-1.5 3.151 0 .687.157 1.337.471 1.952.315.6.773 1.136 1.373 1.608l.579.429c.557.414.936.743 1.136.986.2.243.3.508.3.794 0 .3-.128.55-.386.75-.243.2-.578.3-1.008.3-.242 0-.478-.028-.707-.085a3.094 3.094 0 0 1-.58-.258 1.88 1.88 0 0 1-.364-.214l-.321-.322h-.172v4.525c.286.1.708.178 1.265.236.572.071 1.13.107 1.673.107 1.93 0 3.417-.415 4.46-1.244 1.044-.843 1.565-1.98 1.565-3.41 0-.543-.085-1.057-.256-1.543a4.975 4.975 0 0 0-.752-1.373 6.512 6.512 0 0 0-1.221-1.2l-.58-.43a6.846 6.846 0 0 1-.686-.621.91.91 0 0 1-.193-.558c0-.214.093-.4.279-.557.186-.157.443-.236.772-.236.157 0 .3.021.429.064.143.029.264.065.364.107.13.058.25.13.365.215.129.071.243.157.343.257Zm1.9-1.737c0-.7-.05-1.244-.15-1.63-.1-.4-.25-.693-.45-.879v-.193h5.897v.193c-.2.186-.35.48-.45.88-.086.385-.13.929-.13 1.63v6.24c0 .543.115.957.344 1.243.243.286.593.429 1.05.429.458 0 .808-.143 1.051-.43.243-.285.364-.7.364-1.243v-6.24c0-.7-.05-1.244-.15-1.63-.085-.4-.235-.693-.45-.879v-.193h5.919v.193c-.215.186-.372.48-.472.88-.1.385-.15.929-.15 1.63v6.69c0 1.243-.243 2.301-.73 3.173-.47.872-1.164 1.544-2.08 2.016-.9.457-2.001.686-3.302.686-1.286 0-2.387-.229-3.302-.686a4.97 4.97 0 0 1-2.08-2.016c-.486-.872-.73-1.93-.73-3.174v-6.69Zm13.623-1.608c.115.414.172 1.022.172 1.823v9.177c0 .7-.05 1.251-.15 1.652-.1.385-.25.671-.45.857v.193h5.789v-.193c-.2-.186-.35-.472-.45-.858-.1-.4-.151-.95-.151-1.65V9.587l3.11 2.727h.107l3.024-2.971v4.686c0 .7-.05 1.251-.15 1.652-.1.385-.258.671-.472.857v.193h5.811v-.193c-.214-.186-.371-.472-.472-.858-.1-.4-.15-.95-.15-1.65V4.852c0-.801.057-1.409.172-1.823.128-.415.307-.715.536-.9v-.194h-5.104v.15c.186.343.244.694.172 1.051-.072.343-.286.686-.644 1.03l-2.733 2.748-2.863-2.791c-.357-.358-.572-.701-.644-1.03a1.41 1.41 0 0 1 .172-1.008v-.15h-5.168v.193c.244.186.422.486.536.9Z"/></g><defs><clipPath id="a"><path fill="#fff" d="M0 0h124v32H0z"/></clipPath></defs></svg>