<svg xmlns="http://www.w3.org/2000/svg" width="51" height="32" fill="none"><g fill="#6D6D6D" clip-path="url(#a)"><path d="M47.743 3.933c0 .038 0 .084-.01.112a5.291 5.291 0 0 0-.019 1.101c.02.093.038.187.115.261.124.14.315.112.392-.056a.383.383 0 0 0 .019-.252c-.096-.354-.115-.727-.125-1.091v-.075c.106-.009.201-.018.287-.018a.463.463 0 0 0 .172-.047c.144-.075.144-.233-.01-.308a.48.48 0 0 0-.2-.037c-.239.01-.478.01-.717.01-.086 0-.172.009-.258.018-.048.01-.105.01-.143.037-.067.028-.105.075-.105.14.01.065.038.103.105.13a.223.223 0 0 0 .133.038c.115.01.24.028.364.037Zm2.628.43c0 .009.01.018.01.018.038.252.076.495.105.737.01.084.019.159.076.224.124.158.316.14.402-.028a.407.407 0 0 0 .028-.261c-.057-.28-.086-.56-.143-.83a5.694 5.694 0 0 0-.134-.476.224.224 0 0 0-.21-.168.232.232 0 0 0-.249.121c-.057.075-.105.15-.143.233-.067.15-.124.299-.2.439a.279.279 0 0 1-.039.093.114.114 0 0 0-.02-.028c-.123-.233-.238-.466-.362-.69a.194.194 0 0 1-.038-.056c-.058-.084-.125-.13-.23-.13a.282.282 0 0 0-.22.149c-.019.037-.019.065-.028.102-.039.299-.086.597-.125.896a4.43 4.43 0 0 0-.028.503c-.01.038 0 .084.019.122.019.074.076.12.153.13.095.01.162-.018.19-.093a.484.484 0 0 0 .049-.15c.038-.167.066-.326.095-.484.02-.094.029-.168.058-.27a.925.925 0 0 0 .057.092c.086.112.172.224.277.318.105.074.191.065.277-.02l.048-.046c.086-.13.191-.261.277-.392.02-.018.029-.037.048-.056Zm-22.025-.246c-.067.177-.08.305-.049.41.034.145.122.193.241.156 1.123-.271 3.585.498 4.496.712.215.045.39-.226.243-.468-.214-.235-2.675-1.242-3.614-1.297-.367-.02-1.025-.112-1.317.487ZM37.97.858c.12.067.186.132.219.203.05.095.023.16-.06.193-.741.354-1.729 1.875-2.127 2.4-.097.12-.32.05-.354-.148.007-.224.883-1.876 1.371-2.325.192-.176.51-.52.95-.323ZM32.057.109c.144-.106.293-.143.37-.074 1.119.934 1.713 2.414 2.08 3.769a.206.206 0 0 1 .004.124c-.005.04-.035.083-.083.116-.051.037-.095.048-.116.016-.49-.651-3.293-3.186-2.255-3.951ZM8.35 16.311c.268-.195.56-.357.869-.483.323-.09.667-.075.98.042.314.118.58.332.757.61a1.437 1.437 0 0 1-.243 1.747 2.88 2.88 0 0 1-.6.475c-.98.62-1.971 1.204-2.962 1.823a4.862 4.862 0 0 1-.643.416 1.679 1.679 0 0 1-1.107.126 1.646 1.646 0 0 1-.934-.593 3.313 3.313 0 0 1-.435-.686c-.938-1.925-1.91-3.842-2.814-5.8C.8 13.14.462 12.165.132 11.224a1.153 1.153 0 0 1-.078-.884c.093-.293.3-.54.576-.687.276-.146.6-.182.903-.1.302.083.56.278.718.543.486.63.917 1.3 1.286 2.001.939 1.696 1.833 3.392 2.737 5.037.052.09.11.178.174.262a8.489 8.489 0 0 0 1.902-1.085Zm9.7-.591c-2.146 2.45-5.742 1.83-7.55-1.323-1.284-2.239-1.51-5.937 1.287-8.267a4.661 4.661 0 0 1 2.077-.967 4.587 4.587 0 0 1 2.731.461 4.435 4.435 0 0 1 1.934 1.939c1.529 2.713 1.312 6.172-.478 8.157Zm-.869-5.715a3.057 3.057 0 0 0-1.294-1.611 1.875 1.875 0 0 0-2.32.144c-1.242 1.077-1.503 3.629-.6 5.146.116.248.285.468.496.645a1.955 1.955 0 0 0 2.32.127 4.002 4.002 0 0 0 1.413-2.007 3.91 3.91 0 0 0-.04-2.436l.025-.008Zm9.627 1.068a1.725 1.725 0 0 1-1.286-.238 1.267 1.267 0 0 1-.413-.368 1.23 1.23 0 0 1-.183-1.05c.051-.178.142-.342.266-.48.215-.28.522-.48.869-.569a12.87 12.87 0 0 1 2.78-.466 1.6 1.6 0 0 1 1.164.33 1.5 1.5 0 0 1 .573 1.044c.271.994.301 2.036.087 3.043-.782 3.256-3.475 4.376-6.498 3.333a4.498 4.498 0 0 1-2.138-1.493 6.935 6.935 0 0 1-1.503-2.891 5.946 5.946 0 0 1 .068-2.871 6.046 6.046 0 0 1 1.41-2.522A6.145 6.145 0 0 1 24.4 4.086a2.77 2.77 0 0 1 1.946-.254c.15.04.285.119.393.228a.828.828 0 0 1-.037 1.214 4.467 4.467 0 0 1-.703.508 7.176 7.176 0 0 0-1.981 1.823 3.931 3.931 0 0 0-.71 1.577 3.883 3.883 0 0 0 .041 1.721 3.81 3.81 0 0 0 1.251 1.976c1.911 1.696 4.396.06 3.962-2.255-.635.152-1.19.313-1.755.449Zm11.675 4.782c-2.823 1.696-6.038 0-6.742-3.561-.512-2.544.46-6.105 3.866-7.462a4.735 4.735 0 0 1 2.285-.288 4.55 4.55 0 0 1 2.44 1.278A4.369 4.369 0 0 1 41.55 8.25c.573 3.027-.73 6.258-3.067 7.606Zm.982-5.706a2.956 2.956 0 0 0-.721-1.925 1.826 1.826 0 0 0-1.017-.676 1.866 1.866 0 0 0-1.225.108c-1.529.644-2.606 2.984-2.215 4.706a1.848 1.848 0 0 0 .833 1.347 1.938 1.938 0 0 0 1.59.247 4.1 4.1 0 0 0 2.002-1.473 3.944 3.944 0 0 0 .753-2.334Zm4.94 6.418c-.043.31-.21.592-.465.782a1.232 1.232 0 0 1-1.696-.222 1.16 1.16 0 0 1 .228-1.655 1.232 1.232 0 0 1 1.695.222c.195.249.28.563.238.873ZM43.649 5.13c.165-.246.407-.434.69-.535.284-.1.593-.11.882-.025.294.072.553.24.735.476.182.236.275.526.264.822a9.85 9.85 0 0 1-.217 1.407c-.287 1.569-.565 3.137-.869 4.69a21.706 21.706 0 0 1-.52 1.84c-.07.195-.187.373-.34.516a.889.889 0 0 1-1.181.125.851.851 0 0 1-.27-.328 1.927 1.927 0 0 1-.165-.738c0-1.051 0-2.111.07-3.171a30.15 30.15 0 0 1 .695-4.494c.04-.198.117-.388.226-.56V5.13Z"/><path fill-rule="evenodd" d="M4.679 23.38c-.103.224-.13.474-.08.713.033.316.106.627.217.926.14.366.295.727.487 1.173l.139.322c.259.604.584 1.376 1.017 2.492.123.317.232.637.342.96.044.13.088.26.134.39.163.466.444.884.816 1.215a1.264 1.264 0 0 0 1.932-.043c.15-.19.238-.417.255-.655a2.568 2.568 0 0 0-.096-1.391 23.74 23.74 0 0 0-.875-2.212l-.001-.003a136.897 136.897 0 0 0-1.688-3.396l-.004-.008a2.933 2.933 0 0 0-.656-.778 1.162 1.162 0 0 0-1.44-.242 1.18 1.18 0 0 0-.499.538Zm8.367-2.8a6.244 6.244 0 0 0-2.628-.092c-.676.065-1.34.217-1.802.519-.235.153-.425.35-.53.6-.106.252-.12.54-.033.86.159.588.365 1.16.57 1.729l.034.092v.002a630.527 630.527 0 0 0 1.875 4.945c.073.26.177.509.31.745l.002.004c.175.293.4.554.663.774a1.022 1.022 0 0 0 1.453-.09.964.964 0 0 0 .218-.471 2.32 2.32 0 0 0-.105-1.416 6.81 6.81 0 0 1-.148-.47l-.048-.166c1.443-.55 2.978-1.291 3.518-3.013a2.97 2.97 0 0 0 .05-1.845 3.049 3.049 0 0 0-1.05-1.538 6.155 6.155 0 0 0-2.349-1.168Zm-2.38 2.113.085-.022a4.03 4.03 0 0 1 2.707.54c.355.242.5.51.526.767.026.266-.073.553-.272.83-.375.522-1.06.94-1.679 1.018a293.199 293.199 0 0 1-1.367-3.133Z" clip-rule="evenodd"/><path d="M18.773 18.725c1.022-.46 2.29-.54 3.28-.216.25.07.467.224.613.434.146.209.213.46.19.711a1.013 1.013 0 0 1-.119.468 1.042 1.042 0 0 1-.332.37 1.076 1.076 0 0 1-.969.126l-.012-.005-.011-.005a1.11 1.11 0 0 0-.26-.094l-.005-.001c-.697-.181-1.355.118-1.595.486-.115.176-.13.353-.034.514.103.173.353.366.86.504.14.038.283.074.428.11.401.102.818.207 1.221.353h.002c1.86.692 2.552 2.122 2.315 3.467-.235 1.33-1.373 2.541-3.085 2.827a3.754 3.754 0 0 1-1.88-.076 3.681 3.681 0 0 1-1.598-.98l-.011-.013a1.352 1.352 0 0 1-.271-.59 1.03 1.03 0 0 1 .42-1.031 1.128 1.128 0 0 1 1.22-.093c.19.09.366.204.524.34l.003.002c.28.25.62.315.944.255.33-.061.64-.252.84-.504.198-.252.277-.55.183-.84-.095-.291-.38-.618-1.008-.891a5.415 5.415 0 0 0-.511-.177l-.146-.043a11.17 11.17 0 0 1-.397-.122l-.27-.088a6.813 6.813 0 0 1-.712-.254 2.444 2.444 0 0 1-1.228-.908 2.35 2.35 0 0 1-.43-1.45c.001-1.256.812-2.122 1.84-2.586Zm12.964-.134a1.358 1.358 0 0 0-1.263.051c-.188.11-.346.263-.46.446a1.397 1.397 0 0 0-.208 1.056c.037.233.078.459.118.681.067.369.133.73.176 1.097l.001.01c.098.575.15 1.158.154 1.742v.008a2.39 2.39 0 0 1-.613 1.724l-.007.009a1.215 1.215 0 0 1-.536.383 1.245 1.245 0 0 1-1.253-.246 1.183 1.183 0 0 1-.343-.555 5.91 5.91 0 0 1-.219-1.373l.217-3.364.01-.135c.009-.102.017-.206.02-.303.006-.143.001-.29-.033-.43A.804.804 0 0 0 27.28 19a1.095 1.095 0 0 0-.472-.255c-.358-.101-.66-.098-.913.007-.252.104-.425.298-.548.522-.121.223-.2.486-.258.75-.044.195-.08.4-.113.596l-.034.197v.002a13.958 13.958 0 0 0-.159 3.244c.014.585.139 1.163.369 1.704.26.698.73 1.303 1.35 1.734.62.433 1.36.67 2.122.683a3.83 3.83 0 0 0 2.146-.612c.634-.412 1.125-1 1.409-1.69a6.177 6.177 0 0 0 .544-2.793c-.023-.7-.062-1.405-.1-2.107-.02-.345-.039-.688-.056-1.03a1.653 1.653 0 0 0-.332-.95 1.322 1.322 0 0 0-.497-.41Zm7.018 5.276a9.65 9.65 0 0 1-.063.078c-.161-.909-.31-1.816-.46-2.726l-.162-.98-.007-.037-.02-.031c-.037-.06-.04-.118-.04-.242v-.014L38 19.901a1.277 1.277 0 0 0-.34-.683 1.328 1.328 0 0 0-.673-.378 1.378 1.378 0 0 0-.779.04 1.343 1.343 0 0 0-.624.452c-.132.159-.24.335-.32.524l-.554 1.221-.003.007a234.79 234.79 0 0 0-1.38 3.08l-.002.003c-.278.67-.507 1.377-.735 2.081l-.138.421a1.734 1.734 0 0 0-.106.695c-.015.21.037.422.149.603a1.084 1.084 0 0 0 1.173.473c.227-.056.43-.184.575-.364a3.91 3.91 0 0 0 .474-.722c.383-.765.749-1.539 1.113-2.31.141-.298.279-.565.434-.856l.033.106a6.76 6.76 0 0 0 .818 1.993c.071.131.17.246.292.336a1.072 1.072 0 0 0 .87.188c.15-.032.292-.096.415-.187l.242-.177 1.881-1.547-.11.692c-.154.951-.305 1.895-.466 2.838a2.6 2.6 0 0 0 0 1.273 1.2 1.2 0 0 0 .335.622 1.262 1.262 0 0 0 1.361.26c.225-.092.415-.248.549-.447.31-.376.503-.83.556-1.31.08-.678.17-1.365.26-2.051.104-.792.208-1.583.296-2.359v-.002c.085-.85.126-1.702.123-2.556.018-.27-.05-.538-.197-.768a1.313 1.313 0 0 0-.622-.512 1.404 1.404 0 0 0-.856-.09 1.38 1.38 0 0 0-.738.42 10.61 10.61 0 0 0-.975 1.003l-.002.002c-.33.401-.657.81-.982 1.216-.198.247-.395.494-.592.736Z"/></g><defs><clipPath id="a"><path fill="#fff" d="M0 0h51v32H0z"/></clipPath></defs></svg>