<svg xmlns="http://www.w3.org/2000/svg" width="80" height="32" fill="none"><path fill="#6D6D6D" d="M3.816 3.388C4.024 2.401 5.008 1.6 6.01 1.6h5.45L6.928 23.058h-5.45c-1.003 0-1.648-.8-1.439-1.788L3.816 3.388Zm18.166 0c.209-.987 1.192-1.788 2.194-1.788h5.45l-4.532 21.458h-5.45c-1.003 0-1.648-.8-1.44-1.788l3.778-17.882Zm36.332 0c.208-.987 1.19-1.788 2.194-1.788h5.45l-4.532 21.458h-5.45c-1.004 0-1.648-.8-1.44-1.788l3.778-17.882ZM31.442 1.6h5.45c1.003 0 1.648.8 1.44 1.788L34.553 21.27c-.208.988-1.19 1.788-2.194 1.788h-5.45L31.442 1.6Zm36.333 0h5.45c1.002 0 1.647.8 1.438 1.788L70.886 21.27c-.208.988-1.19 1.788-2.194 1.788h-5.45L67.775 1.6ZM40.148 3.388c.208-.987 1.19-1.788 2.194-1.788h5.45L43.26 23.058h-5.45c-1.002 0-1.647-.8-1.438-1.788l3.776-17.882h.001Zm9.46-1.788h5.45c1.004 0 1.648.8 1.439 1.788l-5.665 26.824c-.21.987-1.192 1.788-2.195 1.788h-5.45l6.421-30.4ZM10.255 15.906h7.267l-1.133 5.364c-.209.988-1.192 1.788-2.194 1.788h-5.45l1.51-7.152Zm25.361 8.941h7.266L41.372 32h-5.45c-1.004 0-1.648-.8-1.44-1.788l1.134-5.365ZM55.34 26.51l-.92 4.357c-.04.187-.102.239-.292.239h-.419c-.19 0-.232-.052-.192-.239l.92-4.357c.04-.186.102-.238.293-.238h.418c.19 0 .232.052.192.238Zm1.21 2.94h-.086c-.09 0-.123.025-.141.116l-.276 1.301c-.04.187-.103.239-.292.239h-.42c-.19 0-.23-.052-.192-.239l.92-4.357c.04-.186.105-.238.294-.238h.864c.995 0 1.372.354 1.188 1.224l-.154.729c-.183.87-.71 1.225-1.705 1.225Zm.253-2.16-.24 1.141c-.02.09 0 .116.093.116h.137c.32 0 .492-.129.562-.457l.096-.458c.07-.328-.047-.458-.368-.458h-.138c-.091 0-.123.026-.142.116Zm2.99.703.68.748c.357.386.407.618.315 1.05l-.024.116c-.172.812-.581 1.263-1.53 1.263-.95 0-1.184-.38-.965-1.418l.027-.128c.04-.187.103-.24.293-.24h.445c.19 0 .232.053.192.24l-.06.283c-.054.258.029.361.258.361.23 0 .354-.096.404-.328l.025-.123c.039-.181.018-.27-.18-.483l-.64-.69c-.357-.38-.403-.6-.312-1.032l.03-.14c.172-.813.581-1.265 1.53-1.265.95 0 1.184.381.965 1.419l-.027.128c-.04.188-.104.239-.293.239h-.446c-.19 0-.23-.051-.192-.239l.06-.283c.055-.258-.028-.36-.257-.36-.23 0-.355.095-.404.327l-.023.11c-.04.187-.019.278.13.445Zm3.834-1.483c.04-.186.102-.238.293-.238h.418c.19 0 .232.052.192.238l-.685 3.243c-.22 1.037-.614 1.417-1.563 1.417s-1.183-.38-.964-1.418l.685-3.242c.04-.186.103-.238.292-.238h.42c.19 0 .23.052.192.238l-.718 3.397c-.054.258.035.361.284.361.242 0 .382-.103.436-.36l.718-3.398Zm2.724 2.624c.003.052.02.064.053.064.031 0 .055-.012.079-.064l1.13-2.694c.056-.136.122-.168.286-.168h.635c.19 0 .231.052.192.238l-.92 4.357c-.04.187-.104.239-.294.239h-.3c-.19 0-.233-.052-.192-.239l.441-2.088c.012-.057.002-.071-.037-.071-.027 0-.056.014-.073.058l-.913 2.128c-.066.154-.15.212-.34.212h-.177c-.197 0-.256-.058-.256-.212l-.022-2.128c-.004-.045-.015-.058-.047-.058-.04 0-.056.014-.068.071l-.44 2.088c-.04.187-.103.239-.293.239h-.301c-.19 0-.232-.052-.192-.239l.92-4.357c.04-.186.103-.238.293-.238h.544c.228 0 .302.052.3.278l-.008 2.584ZM80 1.6c0 .884-.712 1.6-1.59 1.6a1.595 1.595 0 0 1-1.59-1.6c0-.884.713-1.6 1.59-1.6.878 0 1.59.716 1.59 1.6Z"/></svg>