<svg xmlns="http://www.w3.org/2000/svg" width="120" height="32" fill="none"><g fill="#6D6D6D" clip-path="url(#a)"><path fill-rule="evenodd" d="m.25 3.522 2.098-.911a30.688 30.688 0 0 1 24.457 0l2.098.911V17.61c0 7.898-6.415 14.3-14.327 14.3S.25 25.508.25 17.61V3.522Zm4.539 2.98v6.164a9.638 9.638 0 0 0 7.271-7.944 26.1 26.1 0 0 0-7.271 1.78Zm0 11.236a9.651 9.651 0 0 1 4.55 2.55 9.628 9.628 0 0 1 2.826 6.792c-4.2-1.062-7.317-4.834-7.375-9.342Zm9.645 1.675a14.163 14.163 0 0 0-4.218-4.211 14.18 14.18 0 0 0 4.218-4.211 14.163 14.163 0 0 0 4.219 4.21 14.186 14.186 0 0 0-4.219 4.212Zm2.27 7.734c4.362-.965 7.63-4.836 7.66-9.473a9.65 9.65 0 0 0-6.926 5.737 9.614 9.614 0 0 0-.734 3.685v.051Zm5.954-14.944a9.654 9.654 0 0 0 1.705.527V6.502a26.128 26.128 0 0 0-7.558-1.807 9.615 9.615 0 0 0 2.724 5.421 9.644 9.644 0 0 0 3.13 2.087ZM62.986 29.1a3.514 3.514 0 0 1-1.839-.49 3.653 3.653 0 0 1-1.293-1.36c-.309-.58-.463-1.232-.463-1.957 0-.734.154-1.386.463-1.957a3.58 3.58 0 0 1 1.28-1.346c.544-.335 1.162-.503 1.852-.503.626 0 1.184.136 1.674.408.402.223.733.51.995.86v-4.108h1.02v10.29h-1.02v-1.188a2.758 2.758 0 0 1-.981.93c-.5.28-1.062.42-1.689.42Zm.054-1.02c.49 0 .93-.122 1.32-.367a2.6 2.6 0 0 0 .94-.992c.236-.426.355-.902.355-1.428 0-.525-.119-.996-.355-1.413a2.574 2.574 0 0 0-.94-1.006 2.435 2.435 0 0 0-1.32-.367 2.41 2.41 0 0 0-1.307.367c-.39.245-.7.575-.926.992a3.035 3.035 0 0 0-.327 1.427c0 .526.109 1.002.327 1.428.227.416.53.747.912.992.39.245.83.367 1.321.367Zm6.797.53a3.58 3.58 0 0 0 1.852.49 3.64 3.64 0 0 0 1.361-.245 3.658 3.658 0 0 0 1.076-.666c.3-.281.522-.585.667-.91l-.871-.463a3.06 3.06 0 0 1-.885.951c-.364.254-.813.381-1.349.381-.462 0-.898-.118-1.307-.353a2.574 2.574 0 0 1-.953-.993 2.622 2.622 0 0 1-.283-1.196h5.743a4.11 4.11 0 0 0 .055-.652c0-.435-.077-.857-.231-1.264a3.473 3.473 0 0 0-.668-1.115 3.071 3.071 0 0 0-1.062-.788c-.408-.2-.876-.3-1.402-.3-.663 0-1.262.164-1.798.49a3.514 3.514 0 0 0-1.253 1.346c-.308.561-.463 1.21-.463 1.943 0 .734.16 1.391.477 1.971.318.58.749 1.038 1.294 1.373Zm-.676-3.955c.034-.322.118-.612.254-.87.217-.426.517-.757.898-.992.39-.236.813-.354 1.267-.354.454 0 .862.118 1.225.354.363.226.64.539.83.937.144.28.215.588.213.925h-4.687Z" clip-rule="evenodd"/><path d="M76.336 21.65h1.021v.888a2.21 2.21 0 0 1 .722-.697c.4-.236.835-.354 1.307-.354a2.6 2.6 0 0 1 1.525.476c.351.245.623.547.817.906.187-.394.455-.705.804-.933a2.667 2.667 0 0 1 1.498-.448c.49 0 .94.117 1.348.353.417.236.749.562.994.979.254.407.381.87.381 1.386v4.73h-1.021V24.6c0-.444-.082-.82-.245-1.128a1.674 1.674 0 0 0-.64-.707 1.72 1.72 0 0 0-.94-.258 1.77 1.77 0 0 0-.94.258 1.715 1.715 0 0 0-.667.72c-.163.309-.245.68-.245 1.115v4.337h-1.021V24.6c0-.444-.082-.82-.245-1.128a1.674 1.674 0 0 0-.64-.707 1.72 1.72 0 0 0-.94-.258 1.79 1.79 0 0 0-.953.258c-.272.163-.49.404-.654.72-.163.309-.245.68-.245 1.115v4.337h-1.021V21.65ZM88.31 31.927c-.145 0-.295-.014-.45-.04a1.92 1.92 0 0 1-.435-.11v-.951c.09.009.204.023.34.04.146.028.291.041.436.041.445 0 .786-.095 1.022-.285.236-.181.467-.535.694-1.06l.264-.62-2.92-7.291h1.104l2.39 6.014 2.376-6.014h1.13l-3.336 8.21a4.97 4.97 0 0 1-.559 1.006 2.475 2.475 0 0 1-.83.761c-.336.2-.745.299-1.226.299Z"/><path fill-rule="evenodd" d="M53.179 28.841c.363.173.776.259 1.239.259a3.46 3.46 0 0 0 1.17-.19 3.25 3.25 0 0 0 .94-.53c.183-.152.333-.314.45-.486v1.043h1.021v-5.003c0-.48-.118-.901-.354-1.264a2.314 2.314 0 0 0-.967-.87c-.408-.208-.88-.313-1.416-.313-.408 0-.803.078-1.185.232a3.482 3.482 0 0 0-1.021.598c-.29.253-.504.534-.64.843l.926.502a2 2 0 0 1 .75-.856c.335-.227.725-.34 1.17-.34.508 0 .922.136 1.24.408.317.272.476.625.476 1.06v.376l-2.642.44c-.536.09-.976.244-1.32.462-.346.218-.6.485-.763.802a2.174 2.174 0 0 0-.245 1.033c0 .399.104.752.313 1.06.209.309.495.553.858.734Zm3.799-3.606v.548c0 .444-.104.847-.313 1.21a2.36 2.36 0 0 1-.872.87c-.372.208-.808.312-1.307.312-.409 0-.745-.113-1.008-.34a1.07 1.07 0 0 1-.38-.829c0-.335.113-.625.34-.87.235-.244.617-.412 1.143-.503l2.397-.398Z" clip-rule="evenodd"/><path d="M48.019 29.1c-.718 0-1.349-.168-1.893-.503a3.549 3.549 0 0 1-1.28-1.36c-.309-.58-.463-1.232-.463-1.957 0-.725.154-1.373.463-1.944.308-.57.735-1.02 1.28-1.345.544-.336 1.175-.503 1.893-.503.453 0 .88.081 1.28.244.399.163.753.385 1.062.666.308.272.54.59.694.952l-.926.476a2.27 2.27 0 0 0-.83-.952 2.278 2.278 0 0 0-1.28-.367 2.41 2.41 0 0 0-1.308.367 2.542 2.542 0 0 0-.912.992c-.218.417-.327.893-.327 1.428 0 .525.11 1 .327 1.427.227.417.531.747.912.992.39.245.826.367 1.308.367.48 0 .903-.122 1.266-.367a2.32 2.32 0 0 0 .844-.979l.926.503c-.154.354-.386.67-.694.952a3.566 3.566 0 0 1-1.062.666 3.36 3.36 0 0 1-1.28.245Z"/><path fill-rule="evenodd" d="m39.282 18.81-3.704 10.126h1.144l.885-2.474h4.535l.871 2.474h1.144L40.453 18.81h-1.171Zm2.478 6.633h-3.799l1.906-5.357 1.893 5.357Z" clip-rule="evenodd"/><path d="M36.5 2.407v12.087h7.64v-2.19h-5.12V2.407H36.5Zm38.473 12.087h2.438V5.636h-2.438v8.858Zm0-12.087V4.84h2.438V2.407h-2.438Z"/><path fill-rule="evenodd" d="M78.707 17.739V5.635h2.276v.92c.263-.31.587-.556.974-.741.51-.249 1.09-.373 1.74-.373.845 0 1.609.205 2.291.616a4.542 4.542 0 0 1 1.626 1.671c.4.693.601 1.471.601 2.337 0 .854-.2 1.633-.601 2.336a4.418 4.418 0 0 1-1.61 1.671c-.682.411-1.457.617-2.324.617-.606 0-1.17-.109-1.69-.325a3.098 3.098 0 0 1-.845-.55v3.925h-2.438Zm4.68-5.24c.456 0 .857-.104 1.204-.309.346-.205.617-.492.812-.86.195-.368.293-.79.293-1.265 0-.476-.098-.893-.293-1.25a2.145 2.145 0 0 0-.812-.86 2.225 2.225 0 0 0-1.203-.324 2.25 2.25 0 0 0-1.17.308 2.182 2.182 0 0 0-.797.86c-.184.368-.276.79-.276 1.266s.092.897.276 1.265c.195.368.46.655.797.86a2.25 2.25 0 0 0 1.17.308Z" clip-rule="evenodd"/><path d="M90.08 14.007c.726.454 1.576.682 2.552.682.693 0 1.294-.114 1.804-.341.509-.238.905-.563 1.186-.974.293-.41.44-.892.44-1.444 0-.638-.196-1.173-.586-1.606-.39-.443-.954-.773-1.69-.99l-1.415-.421a3.492 3.492 0 0 1-.552-.211.838.838 0 0 1-.309-.26.573.573 0 0 1-.097-.324c0-.227.086-.406.26-.536.184-.13.433-.194.747-.194.434 0 .819.113 1.154.34.347.217.585.509.716.876l1.803-.843a3.244 3.244 0 0 0-1.397-1.704c-.65-.41-1.409-.616-2.276-.616-.66 0-1.246.119-1.755.357-.51.227-.905.546-1.187.957-.281.41-.422.892-.422 1.444 0 .627.195 1.173.585 1.638.39.455.948.785 1.674.99l1.512.422c.195.054.357.119.487.195.13.075.228.162.293.26a.524.524 0 0 1 .097.324.694.694 0 0 1-.276.584c-.184.14-.45.21-.796.21-.477 0-.91-.134-1.3-.405a2.793 2.793 0 0 1-.927-1.12l-1.788.844c.26.78.748 1.401 1.463 1.866Zm16.193-8.372h2.276v1.07c.166-.323.399-.583.699-.778.498-.324 1.094-.486 1.788-.486.736 0 1.381.189 1.934.568.328.214.585.473.77.776.235-.343.515-.618.839-.825.542-.346 1.176-.52 1.902-.52.639 0 1.202.141 1.69.423.498.28.888.675 1.17 1.184.282.497.423 1.082.423 1.752v5.695h-2.438V9.318c0-.346-.065-.643-.195-.892a1.367 1.367 0 0 0-.521-.584c-.227-.14-.503-.211-.828-.211-.315 0-.591.07-.829.21a1.47 1.47 0 0 0-.537.585 2.052 2.052 0 0 0-.178.892v5.176H111.8V9.318c0-.346-.065-.643-.196-.892a1.358 1.358 0 0 0-.52-.584c-.227-.14-.503-.211-.828-.211-.315 0-.591.07-.829.21a1.47 1.47 0 0 0-.537.585 2.051 2.051 0 0 0-.179.892v5.176h-2.438V5.635Zm-6.057 9.054c-.715 0-1.328-.152-1.837-.455a3.016 3.016 0 0 1-1.137-1.297c-.26-.552-.39-1.196-.39-1.931v-5.37h2.438v5.175c0 .335.064.633.194.892.142.25.336.444.586.585.249.14.53.21.845.21.325 0 .607-.07.845-.21.249-.141.439-.336.569-.585a1.84 1.84 0 0 0 .211-.892V5.636h2.438v8.858h-2.275v-1.078a2.18 2.18 0 0 1-.878.9c-.455.248-.992.373-1.609.373Z"/><path fill-rule="evenodd" d="M69.278 14.689a4.9 4.9 0 0 1-2.406-.6 4.72 4.72 0 0 1-1.723-1.64c-.422-.703-.633-1.497-.633-2.384 0-.898.211-1.693.633-2.385a4.72 4.72 0 0 1 1.723-1.639 4.9 4.9 0 0 1 2.406-.6c.877 0 1.674.2 2.39.6.714.4 1.283.946 1.706 1.639.433.692.65 1.487.65 2.385 0 .887-.217 1.681-.65 2.385a4.592 4.592 0 0 1-1.707 1.638c-.715.4-1.512.6-2.39.6Zm0-2.19c.444 0 .829-.104 1.154-.309a2.07 2.07 0 0 0 .78-.86c.195-.368.293-.79.293-1.265 0-.476-.098-.893-.293-1.25a2.071 2.071 0 0 0-.78-.86c-.325-.216-.71-.324-1.154-.324-.444 0-.834.108-1.17.324a2.183 2.183 0 0 0-.797.86c-.184.357-.276.774-.276 1.25s.092.897.276 1.265c.195.368.46.655.797.86.336.206.726.308 1.17.308Zm-12.001 5.224c.585.227 1.219.34 1.901.34.856 0 1.61-.173 2.26-.519a3.939 3.939 0 0 0 1.56-1.444c.379-.606.569-1.298.569-2.077V5.635H61.29v.93a3.049 3.049 0 0 0-.91-.735c-.477-.26-1.035-.39-1.674-.39-.813 0-1.539.185-2.178.552a4.011 4.011 0 0 0-1.512 1.525c-.368.639-.552 1.374-.552 2.207 0 .833.184 1.58.552 2.239a4.095 4.095 0 0 0 1.528 1.541c.65.368 1.387.552 2.21.552.64 0 1.198-.12 1.675-.357.258-.135.491-.306.699-.514v.838c0 .379-.081.709-.244.99a1.453 1.453 0 0 1-.666.633c-.293.151-.64.227-1.04.227-.51 0-.949-.119-1.317-.357a1.687 1.687 0 0 1-.732-.973l-2.259.795c.184.551.482 1.027.894 1.427.423.411.926.73 1.512.957Zm2.893-6.133c-.304.173-.661.26-1.073.26-.412 0-.78-.087-1.105-.26a2.059 2.059 0 0 1-.748-.747 2.211 2.211 0 0 1-.26-1.087c0-.421.087-.79.26-1.103a1.91 1.91 0 0 1 .748-.746 2.204 2.204 0 0 1 1.105-.276c.401 0 .753.092 1.056.276.304.173.542.422.715.746.174.314.26.682.26 1.103 0 .422-.086.79-.26 1.104a1.748 1.748 0 0 1-.698.73Zm-11.045 3.099c-.877 0-1.68-.2-2.405-.6a4.72 4.72 0 0 1-1.723-1.64c-.423-.703-.634-1.497-.634-2.384 0-.898.211-1.693.634-2.385a4.72 4.72 0 0 1 1.723-1.64c.726-.4 1.528-.6 2.405-.6.878 0 1.674.2 2.39.6.715.4 1.283.946 1.706 1.639.434.692.65 1.487.65 2.385 0 .887-.216 1.681-.65 2.385a4.593 4.593 0 0 1-1.706 1.638c-.716.4-1.512.6-2.39.6Zm0-2.19c.444 0 .83-.104 1.154-.309a2.07 2.07 0 0 0 .78-.86 2.66 2.66 0 0 0 .293-1.265c0-.476-.097-.893-.292-1.25a2.071 2.071 0 0 0-.78-.86c-.326-.216-.71-.324-1.155-.324-.444 0-.834.108-1.17.324a2.182 2.182 0 0 0-.796.86c-.184.357-.277.774-.277 1.25s.093.897.277 1.265c.195.368.46.655.796.86.336.206.726.308 1.17.308Z" clip-rule="evenodd"/></g><defs><clipPath id="a"><path fill="#fff" d="M0 0h120v32H0z"/></clipPath></defs></svg>