<svg display="block" role="presentation" viewBox="0 0 184 40" xmlns="http://www.w3.org/2000/svg"><g d="M 3.338 35.488 C 6.867 41.347 15.36 41.49 18.884 35.619 C 20 33.76 20.627 31.649 20.707 29.482 L 20.82 26.48 C 20.82 26.48 15.465 31.366 13.258 31.066 C 12.512 30.965 13.08 29.583 13.349 28.899 C 14.373 26.321 20.595 19.98 20.595 19.98 C 20.595 19.98 21.089 10.997 21.968 8.534 C 22.423 7.26 22.95 6.676 23.433 6.444 C 23.915 6.678 24.443 7.26 24.897 8.534 C 25.776 10.997 26.271 19.98 26.271 19.98 C 26.271 19.98 32.492 26.307 33.516 28.899 C 33.786 29.583 34.353 30.965 33.608 31.066 C 31.398 31.366 26.046 26.48 26.046 26.48 L 26.158 29.482 C 26.243 31.771 26.938 33.996 28.171 35.926 C 31.71 41.462 39.923 41.316 43.38 35.732 C 45.634 32.09 46.84 27.897 46.867 23.614 C 46.963 10.894 36.715 0.304 23.995 0.007 C 15.455 -0.198 7.48 4.261 3.182 11.644 C -1.116 19.026 -1.056 28.163 3.338 35.488 Z M 3.338 35.488 C 6.867 41.347 15.36 41.49 18.884 35.619 C 20 33.76 20.627 31.649 20.707 29.482 L 20.82 26.48 C 20.82 26.48 15.465 31.366 13.258 31.066 C 12.512 30.965 13.08 29.583 13.349 28.899 C 14.373 26.321 20.595 19.98 20.595 19.98 C 20.595 19.98 21.089 10.997 21.968 8.534 C 22.423 7.26 22.95 6.676 23.433 6.444 C 23.915 6.678 24.443 7.26 24.897 8.534 C 25.776 10.997 26.271 19.98 26.271 19.98 C 26.271 19.98 32.492 26.307 33.516 28.899 C 33.786 29.583 34.353 30.965 33.608 31.066 C 31.398 31.366 26.046 26.48 26.046 26.48 L 26.158 29.482 C 26.243 31.771 26.938 33.996 28.171 35.926 C 31.71 41.462 39.923 41.316 43.38 35.732 C 45.634 32.09 46.84 27.897 46.867 23.614 C 46.963 10.894 36.715 0.304 23.995 0.007 C 15.455 -0.198 7.48 4.261 3.182 11.644 C -1.116 19.026 -1.056 28.163 3.338 35.488 Z M 67.846 17.008 L 73.672 17.008 L 73.672 10.616 L 67.846 10.616 L 67.846 3.398 L 61.196 5.409 L 61.196 10.616 L 56.71 10.616 L 56.71 17.008 L 61.196 17.008 L 61.196 27.732 C 61.196 34.692 64.341 37.424 73.672 36.393 L 73.672 30.361 C 69.857 30.567 67.846 30.516 67.846 27.732 Z M 111.748 28.571 L 117.109 31.664 C 114.686 35.17 110.82 37.18 105.87 37.18 C 97.209 37.18 91.744 31.252 91.744 23.57 C 91.744 15.888 97.261 9.959 105.355 9.959 C 112.985 9.959 118.398 15.991 118.398 23.57 C 118.398 24.55 118.295 25.426 118.14 26.302 L 98.704 26.302 C 99.632 29.705 102.468 31.149 105.974 31.149 C 108.551 31.149 110.613 30.066 111.748 28.571 Z M 105.355 15.94 C 101.798 15.94 99.374 17.847 98.601 21.147 L 111.748 21.147 C 110.923 17.435 108.139 15.94 105.355 15.94 Z M 171.665 36.459 L 165.014 36.459 L 165.014 33.417 C 163.158 35.737 160.374 37.18 156.611 37.18 C 149.754 37.18 144.083 31.252 144.083 23.57 C 144.083 15.888 149.754 9.959 156.611 9.959 C 160.374 9.959 163.158 11.403 165.014 13.723 L 165.014 10.681 L 171.665 10.681 Z M 157.848 16.301 C 153.775 16.301 150.734 19.239 150.734 23.57 C 150.734 27.901 153.775 30.839 157.848 30.839 C 161.973 30.839 165.014 27.901 165.014 23.57 C 165.014 19.239 161.973 16.301 157.848 16.301 Z M 175.637 32.775 C 175.637 35.198 177.596 37.157 180.019 37.157 C 182.442 37.157 184.401 35.198 184.401 32.775 C 184.401 30.352 182.442 28.393 180.019 28.393 C 177.596 28.393 175.637 30.352 175.637 32.775 Z M 137.453 10.709 L 144.774 10.709 L 134.978 36.487 L 127.4 36.487 L 117.604 10.709 L 124.925 10.709 L 131.163 28.754 Z M 83.866 15.143 C 85.206 11.637 88.454 10.194 91.702 10.194 L 91.702 17.618 C 88.248 17.205 83.866 18.752 83.866 24.165 L 83.866 36.487 L 77.215 36.487 L 77.215 10.709 L 83.866 10.709 Z" fill="transparent" height="40px" id="P9rolVNrS" transform="translate(0 0.5)" width="184.40123419579027px"><path d="M 3.338 35.488 C 6.867 41.347 15.36 41.49 18.884 35.619 C 20 33.76 20.627 31.649 20.707 29.482 L 20.82 26.48 C 20.82 26.48 15.465 31.366 13.258 31.066 C 12.512 30.965 13.08 29.583 13.349 28.899 C 14.373 26.321 20.595 19.98 20.595 19.98 C 20.595 19.98 21.089 10.997 21.968 8.534 C 22.423 7.26 22.95 6.676 23.433 6.444 C 23.915 6.678 24.443 7.26 24.897 8.534 C 25.776 10.997 26.271 19.98 26.271 19.98 C 26.271 19.98 32.492 26.307 33.516 28.899 C 33.786 29.583 34.353 30.965 33.608 31.066 C 31.398 31.366 26.046 26.48 26.046 26.48 L 26.158 29.482 C 26.243 31.771 26.938 33.996 28.171 35.926 C 31.71 41.462 39.923 41.316 43.38 35.732 C 45.634 32.09 46.84 27.897 46.867 23.614 C 46.963 10.894 36.715 0.304 23.995 0.007 C 15.455 -0.198 7.48 4.261 3.182 11.644 C -1.116 19.026 -1.056 28.163 3.338 35.488 Z" fill="var(--token-96a122a0-d7da-4848-88c1-f911f67c4fb5, rgb(164, 167, 174))" height="40px" id="k1Xivk_VP" transform="translate(0 0)" width="46.8674307686853px"/><g d="M 3.338 35.488 C 6.867 41.347 15.36 41.49 18.884 35.619 C 20 33.76 20.627 31.649 20.707 29.482 L 20.82 26.48 C 20.82 26.48 15.465 31.366 13.258 31.066 C 12.512 30.965 13.08 29.583 13.349 28.899 C 14.373 26.321 20.595 19.98 20.595 19.98 C 20.595 19.98 21.089 10.997 21.968 8.534 C 22.423 7.26 22.95 6.676 23.433 6.444 C 23.915 6.678 24.443 7.26 24.897 8.534 C 25.776 10.997 26.271 19.98 26.271 19.98 C 26.271 19.98 32.492 26.307 33.516 28.899 C 33.786 29.583 34.353 30.965 33.608 31.066 C 31.398 31.366 26.046 26.48 26.046 26.48 L 26.158 29.482 C 26.243 31.771 26.938 33.996 28.171 35.926 C 31.71 41.462 39.923 41.316 43.38 35.732 C 45.634 32.09 46.84 27.897 46.867 23.614 C 46.963 10.894 36.715 0.304 23.995 0.007 C 15.455 -0.198 7.48 4.261 3.182 11.644 C -1.116 19.026 -1.056 28.163 3.338 35.488 Z" fill="transparent" height="40px" id="wEVMK1HSb" transform="translate(0 0)" width="46.86743076868519px"><path d="M 3.338 35.488 C 6.867 41.347 15.36 41.49 18.884 35.619 C 20 33.76 20.627 31.649 20.707 29.482 L 20.82 26.48 C 20.82 26.48 15.465 31.366 13.258 31.066 C 12.512 30.965 13.08 29.583 13.349 28.899 C 14.373 26.321 20.595 19.98 20.595 19.98 C 20.595 19.98 21.089 10.997 21.968 8.534 C 22.423 7.26 22.95 6.676 23.433 6.444 C 23.915 6.678 24.443 7.26 24.897 8.534 C 25.776 10.997 26.271 19.98 26.271 19.98 C 26.271 19.98 32.492 26.307 33.516 28.899 C 33.786 29.583 34.353 30.965 33.608 31.066 C 31.398 31.366 26.046 26.48 26.046 26.48 L 26.158 29.482 C 26.243 31.771 26.938 33.996 28.171 35.926 C 31.71 41.462 39.923 41.316 43.38 35.732 C 45.634 32.09 46.84 27.897 46.867 23.614 C 46.963 10.894 36.715 0.304 23.995 0.007 C 15.455 -0.198 7.48 4.261 3.182 11.644 C -1.116 19.026 -1.056 28.163 3.338 35.488 Z" fill="var(--token-96a122a0-d7da-4848-88c1-f911f67c4fb5, rgb(164, 167, 174))" height="40px" id="vxcCced5r" width="46.86743076868519px"/></g><path d="M 11.136 13.611 L 16.962 13.611 L 16.962 7.218 L 11.136 7.218 L 11.136 0 L 4.485 2.011 L 4.485 7.218 L 0 7.218 L 0 13.611 L 4.485 13.611 L 4.485 24.334 C 4.485 31.294 7.63 34.026 16.962 32.995 L 16.962 26.963 C 13.147 27.169 11.136 27.118 11.136 24.334 Z" fill="var(--token-96a122a0-d7da-4848-88c1-f911f67c4fb5, rgb(164, 167, 174))" height="33.20585398136395px" id="tq3Q1Z2R6" transform="translate(56.71 3.398)" width="16.9615755884505px"/><path d="M 20.003 18.611 L 25.365 21.705 C 22.942 25.21 19.075 27.221 14.126 27.221 C 5.465 27.221 0 21.292 0 13.611 C 0 5.929 5.516 0 13.611 0 C 21.241 0 26.654 6.032 26.654 13.611 C 26.654 14.59 26.551 15.466 26.396 16.343 L 6.96 16.343 C 7.888 19.746 10.723 21.189 14.229 21.189 C 16.807 21.189 18.869 20.106 20.003 18.611 Z M 13.61 5.98 C 10.053 5.98 7.63 7.888 6.857 11.187 L 20.003 11.187 C 19.178 7.475 16.394 5.98 13.61 5.98 Z M 79.92 26.499 L 73.27 26.499 L 73.27 23.457 C 71.414 25.777 68.63 27.221 64.866 27.221 C 58.01 27.221 52.339 21.292 52.339 13.611 C 52.339 5.929 58.01 0 64.866 0 C 68.63 0 71.414 1.444 73.27 3.764 L 73.27 0.722 L 79.92 0.722 Z M 66.104 6.341 C 62.031 6.341 58.989 9.28 58.989 13.611 C 58.989 17.941 62.031 20.88 66.104 20.88 C 70.228 20.88 73.27 17.941 73.27 13.611 C 73.27 9.28 70.228 6.341 66.104 6.341 Z" fill="var(--token-96a122a0-d7da-4848-88c1-f911f67c4fb5, rgb(164, 167, 174))" height="27.221008847118107px" id="ch8dyH5rw" transform="translate(91.744 9.959)" width="79.92045544582516px"/><path d="M 98.422 22.581 C 98.422 25.004 100.381 26.963 102.804 26.963 C 105.227 26.963 107.186 25.004 107.186 22.581 C 107.186 20.158 105.227 18.199 102.804 18.199 C 100.381 18.199 98.422 20.158 98.422 22.581 Z M 60.237 0.516 L 67.558 0.516 L 57.763 26.293 L 50.184 26.293 L 40.389 0.516 L 47.71 0.516 L 53.948 18.56 Z M 6.651 4.949 C 7.991 1.444 11.239 0 14.487 0 L 14.487 7.424 C 11.033 7.011 6.651 8.558 6.651 13.971 L 6.651 26.293 L 0 26.293 L 0 0.516 L 6.651 0.516 Z" fill="var(--token-96a122a0-d7da-4848-88c1-f911f67c4fb5, rgb(164, 167, 174))" height="26.96323447044847px" id="TlwOxb7NX" transform="translate(77.215 10.194)" width="107.18599371727464px"/></g></svg>