<svg display="block" role="presentation" viewBox="0 0 196 40" xmlns="http://www.w3.org/2000/svg"><g d="M 17.878 17.65 C 19.437 17.65 20.701 16.386 20.701 14.827 C 20.701 13.268 19.437 12.004 17.878 12.004 C 16.319 12.004 15.055 13.268 15.055 14.827 C 15.055 16.386 16.319 17.65 17.878 17.65 Z M 17.408 34.117 C 18.967 34.117 20.231 32.853 20.231 31.294 C 20.231 29.735 18.967 28.471 17.408 28.471 C 15.849 28.471 14.585 29.735 14.585 31.294 C 14.585 32.853 15.849 34.117 17.408 34.117 Z M 15.055 10.122 C 15.575 10.122 15.996 9.701 15.996 9.181 C 15.996 8.662 15.575 8.24 15.055 8.24 C 14.536 8.24 14.114 8.662 14.114 9.181 C 14.114 9.701 14.536 10.122 15.055 10.122 Z M 13.879 23.296 C 14.269 23.296 14.585 22.98 14.585 22.59 C 14.585 22.2 14.269 21.884 13.879 21.884 C 13.489 21.884 13.173 22.2 13.173 22.59 C 13.173 22.98 13.489 23.296 13.879 23.296 Z M 31.993 24.001 C 32.382 24.001 32.698 23.686 32.698 23.296 C 32.698 22.906 32.382 22.59 31.993 22.59 C 31.603 22.59 31.287 22.906 31.287 23.296 C 31.287 23.686 31.603 24.001 31.993 24.001 Z M 25.171 34.587 C 25.56 34.587 25.876 34.271 25.876 33.882 C 25.876 33.492 25.56 33.176 25.171 33.176 C 24.781 33.176 24.465 33.492 24.465 33.882 C 24.465 34.271 24.781 34.587 25.171 34.587 Z M 23.524 20.002 C 24.044 20.002 24.465 19.581 24.465 19.061 C 24.465 18.542 24.044 18.121 23.524 18.121 C 23.004 18.121 22.583 18.542 22.583 19.061 C 22.583 19.581 23.004 20.002 23.524 20.002 Z M 19.995 25.178 C 20.905 25.178 21.642 24.44 21.642 23.531 C 21.642 22.622 20.905 21.884 19.995 21.884 C 19.086 21.884 18.349 22.622 18.349 23.531 C 18.349 24.44 19.086 25.178 19.995 25.178 Z M 30.111 9.181 C 30.89 9.181 31.522 8.549 31.522 7.77 C 31.522 6.99 30.89 6.359 30.111 6.359 C 29.331 6.359 28.699 6.99 28.699 7.77 C 28.699 8.549 29.331 9.181 30.111 9.181 Z M 29.523 19.767 C 31.666 19.767 33.404 18.029 33.404 15.886 C 33.404 13.742 31.666 12.004 29.523 12.004 C 27.379 12.004 25.641 13.742 25.641 15.886 C 25.641 18.029 27.379 19.767 29.523 19.767 Z M 22.818 11.063 C 23.988 11.063 24.935 10.115 24.935 8.946 C 24.935 7.777 23.988 6.829 22.818 6.829 C 21.649 6.829 20.701 7.777 20.701 8.946 C 20.701 10.115 21.649 11.063 22.818 11.063 Z M 27.994 31.294 C 29.942 31.294 31.522 29.714 31.522 27.765 C 31.522 25.817 29.942 24.237 27.994 24.237 C 26.045 24.237 24.465 25.817 24.465 27.765 C 24.465 29.714 26.045 31.294 27.994 31.294 Z M 7.824 39.998 C 6.965 40.017 6.107 39.91 5.279 39.68 C 4.689 39.514 4.156 39.188 3.738 38.739 C 3.296 38.229 2.982 37.621 2.823 36.966 C 2.591 36.008 2.483 35.024 2.503 34.039 L 2.503 26.276 C 2.503 24.832 2.279 23.78 1.821 23.065 C 1.387 22.424 0.743 21.955 0 21.738 L 0 17.817 C 1.254 17.396 2.51 16.323 2.51 13.722 L 2.51 5.959 C 2.51 3.752 2.917 2.195 3.717 1.303 C 4.517 0.412 5.926 0.007 7.946 0.007 L 10.586 0.007 L 10.586 3.879 L 10.496 3.879 C 9.975 3.873 9.454 3.903 8.937 3.968 C 8.469 4.02 8.029 4.214 7.676 4.526 C 7.345 4.857 7.129 5.285 7.057 5.747 C 6.971 6.253 6.933 6.765 6.942 7.278 L 6.942 14.133 C 6.949 14.818 6.909 15.503 6.822 16.182 C 6.766 16.619 6.645 17.045 6.462 17.445 C 6.293 17.8 6.058 18.119 5.77 18.386 C 5.367 18.756 4.94 19.099 4.491 19.412 L 3.613 20.033 L 4.51 20.626 C 4.949 20.906 5.356 21.235 5.721 21.607 C 6.014 21.915 6.257 22.267 6.441 22.651 C 6.634 23.067 6.762 23.51 6.822 23.964 C 6.905 24.6 6.944 25.242 6.94 25.883 L 6.94 32.738 C 6.931 33.238 6.97 33.737 7.055 34.23 C 7.123 34.679 7.327 35.098 7.638 35.429 C 7.971 35.747 8.393 35.954 8.847 36.022 C 9.379 36.109 9.918 36.147 10.456 36.138 L 10.586 36.138 L 10.586 39.998 Z M 39.224 39.998 C 40.083 40.017 40.941 39.91 41.769 39.68 C 42.359 39.514 42.892 39.188 43.31 38.739 C 43.749 38.23 44.06 37.624 44.218 36.97 C 44.45 36.013 44.558 35.029 44.538 34.044 L 44.538 26.281 C 44.538 24.837 44.761 23.785 45.22 23.07 C 45.654 22.425 46.301 21.953 47.048 21.736 L 47.048 17.817 C 45.794 17.396 44.538 16.323 44.538 13.722 L 44.538 5.959 C 44.538 3.752 44.131 2.195 43.331 1.303 C 42.531 0.412 41.122 0 39.097 0 L 36.462 0 L 36.462 3.879 L 36.552 3.879 C 37.073 3.873 37.594 3.903 38.111 3.968 C 38.579 4.02 39.019 4.214 39.372 4.526 C 39.703 4.857 39.919 5.285 39.991 5.747 C 40.077 6.253 40.115 6.765 40.106 7.278 L 40.106 14.133 C 40.097 14.818 40.135 15.503 40.219 16.182 C 40.275 16.619 40.396 17.045 40.579 17.445 C 40.748 17.8 40.983 18.119 41.27 18.386 C 41.674 18.756 42.101 19.099 42.55 19.412 L 43.428 20.033 L 42.531 20.626 C 42.092 20.906 41.685 21.235 41.32 21.607 C 41.026 21.915 40.784 22.267 40.6 22.651 C 40.406 23.07 40.278 23.516 40.219 23.973 C 40.138 24.606 40.1 25.243 40.106 25.881 L 40.106 32.736 C 40.114 33.236 40.076 33.735 39.991 34.227 C 39.935 34.683 39.728 35.107 39.403 35.432 C 39.078 35.757 38.654 35.964 38.198 36.02 C 37.666 36.106 37.128 36.145 36.589 36.135 L 36.462 36.135 L 36.462 39.998 Z M 111.439 32.754 C 110.88 33.623 110.199 34.305 109.395 34.8 C 108.574 35.302 107.606 35.552 106.493 35.552 C 105.337 35.552 104.3 35.323 103.381 34.863 C 102.476 34.404 101.696 33.722 101.042 32.817 C 100.402 31.912 99.914 30.791 99.58 29.454 C 99.246 28.104 99.079 26.538 99.079 24.756 L 99.079 22.981 C 99.079 21.129 99.246 19.528 99.58 18.177 C 99.914 16.813 100.402 15.678 101.042 14.774 C 101.696 13.869 102.483 13.2 103.402 12.769 C 104.321 12.337 105.358 12.121 106.513 12.121 C 107.641 12.121 108.616 12.379 109.437 12.894 C 110.114 13.307 110.706 13.866 111.212 14.572 L 111.212 3.058 L 116.078 3.058 L 116.078 35.135 L 111.672 35.155 Z M 111.212 18.522 C 111.085 18.264 110.939 18.016 110.774 17.781 C 110.44 17.307 110.029 16.938 109.542 16.674 C 109.068 16.395 108.511 16.256 107.871 16.256 C 107.161 16.256 106.555 16.395 106.054 16.674 C 105.553 16.938 105.149 17.349 104.843 17.906 C 104.536 18.449 104.307 19.145 104.154 19.994 C 104.014 20.83 103.945 21.825 103.945 22.981 L 103.945 24.756 C 103.945 25.911 104.014 26.907 104.154 27.742 C 104.293 28.577 104.516 29.266 104.822 29.809 C 105.128 30.338 105.532 30.735 106.033 31 C 106.534 31.25 107.14 31.376 107.85 31.376 C 108.741 31.376 109.465 31.153 110.022 30.707 C 110.519 30.319 110.916 29.815 111.212 29.195 Z M 121.624 32.942 C 120.83 32.065 120.225 30.993 119.807 29.726 C 119.389 28.445 119.18 26.962 119.18 25.278 L 119.18 23.106 C 119.18 21.199 119.396 19.556 119.828 18.178 C 120.273 16.785 120.886 15.644 121.665 14.753 C 122.445 13.862 123.364 13.2 124.422 12.769 C 125.494 12.337 126.657 12.121 127.91 12.121 C 129.33 12.121 130.562 12.351 131.606 12.81 C 132.65 13.27 133.506 13.959 134.175 14.878 C 134.857 15.797 135.358 16.932 135.678 18.282 C 136.012 19.632 136.179 21.185 136.179 22.939 L 136.179 25.382 L 124.047 25.382 C 124.052 26.464 124.15 27.383 124.338 28.139 C 124.547 28.918 124.854 29.559 125.257 30.06 C 125.661 30.547 126.148 30.909 126.719 31.146 C 127.304 31.369 127.979 31.48 128.745 31.48 C 129.872 31.48 130.84 31.271 131.648 30.854 C 132.469 30.422 133.179 29.865 133.778 29.183 L 135.929 32.169 C 135.525 32.712 134.982 33.248 134.3 33.777 C 133.618 34.292 132.789 34.717 131.815 35.051 C 130.854 35.385 129.726 35.552 128.432 35.552 C 126.97 35.552 125.668 35.337 124.526 34.905 C 123.385 34.459 122.417 33.805 121.624 32.942 Z M 131.376 21.707 L 131.376 21.185 C 131.348 20.154 131.223 19.27 131 18.533 C 130.777 17.781 130.415 17.21 129.914 16.82 C 129.427 16.416 128.752 16.214 127.889 16.214 C 127.262 16.214 126.705 16.333 126.218 16.57 C 125.731 16.806 125.327 17.189 125.007 17.718 C 124.701 18.247 124.464 18.957 124.297 19.848 C 124.194 20.388 124.123 21.008 124.083 21.707 Z M 79.041 24.756 L 79.041 22.939 C 79.041 21.185 79.256 19.632 79.688 18.282 C 80.12 16.932 80.732 15.804 81.526 14.899 C 82.333 13.98 83.28 13.291 84.366 12.831 C 85.451 12.358 86.649 12.121 87.957 12.121 C 89.294 12.121 90.505 12.358 91.591 12.831 C 92.691 13.291 93.638 13.98 94.431 14.899 C 95.239 15.804 95.858 16.931 96.29 18.282 C 96.722 19.632 96.937 21.185 96.937 22.939 L 96.937 24.756 C 96.937 26.51 96.722 28.062 96.29 29.413 C 95.858 30.763 95.239 31.898 94.431 32.817 C 93.638 33.722 92.698 34.404 91.612 34.863 C 90.526 35.323 89.322 35.552 87.999 35.552 C 86.691 35.552 85.486 35.323 84.387 34.863 C 83.301 34.404 82.354 33.722 81.547 32.817 C 80.739 31.898 80.12 30.763 79.688 29.413 C 79.256 28.062 79.041 26.51 79.041 24.756 Z M 83.906 22.939 L 83.906 24.756 C 83.906 25.883 84.004 26.872 84.199 27.721 C 84.394 28.556 84.672 29.253 85.034 29.809 C 85.396 30.366 85.827 30.784 86.329 31.062 C 86.83 31.341 87.387 31.48 87.999 31.48 C 88.682 31.48 89.273 31.341 89.774 31.062 C 90.289 30.784 90.714 30.366 91.048 29.809 C 91.396 29.253 91.654 28.556 91.821 27.721 C 91.988 26.872 92.072 25.883 92.072 24.756 L 92.072 22.939 C 92.072 21.825 91.974 20.85 91.779 20.015 C 91.584 19.166 91.306 18.463 90.944 17.906 C 90.582 17.335 90.143 16.911 89.628 16.632 C 89.127 16.354 88.57 16.215 87.957 16.215 C 87.359 16.215 86.809 16.354 86.308 16.632 C 85.821 16.911 85.396 17.335 85.034 17.906 C 84.672 18.463 84.394 19.166 84.199 20.015 C 84.004 20.85 83.906 21.825 83.906 22.939 Z M 76.944 25.138 L 71.89 25.138 C 71.807 26.67 71.591 27.881 71.243 28.772 C 70.895 29.663 70.359 30.297 69.635 30.672 C 68.925 31.048 67.971 31.236 66.774 31.236 C 65.771 31.236 64.936 31.048 64.268 30.672 C 63.6 30.283 63.064 29.719 62.66 28.981 C 62.256 28.229 61.964 27.317 61.783 26.245 C 61.602 25.173 61.511 23.941 61.511 22.549 L 61.511 17.119 C 61.511 15.671 61.616 14.411 61.825 13.339 C 62.047 12.253 62.374 11.355 62.806 10.646 C 63.251 9.921 63.815 9.379 64.498 9.017 C 65.194 8.654 66.022 8.474 66.983 8.474 C 68.138 8.474 69.057 8.676 69.739 9.079 C 70.435 9.483 70.95 10.144 71.285 11.063 C 71.633 11.968 71.841 13.179 71.911 14.697 L 76.965 14.697 C 76.84 12.455 76.387 10.555 75.607 8.996 C 74.828 7.436 73.721 6.253 72.287 5.446 C 70.853 4.638 69.085 4.234 66.983 4.234 C 65.34 4.234 63.864 4.527 62.555 5.112 C 61.261 5.682 60.161 6.525 59.256 7.638 C 58.351 8.752 57.655 10.109 57.168 11.71 C 56.694 13.312 56.458 15.128 56.458 17.161 L 56.458 22.549 C 56.458 24.582 56.687 26.398 57.147 27.999 C 57.62 29.6 58.302 30.958 59.193 32.072 C 60.084 33.171 61.163 34.014 62.43 34.599 C 63.711 35.183 65.159 35.476 66.774 35.476 C 68.904 35.476 70.707 35.072 72.183 34.264 C 73.672 33.457 74.814 32.287 75.607 30.756 C 76.401 29.211 76.846 27.338 76.944 25.138 Z M 180.298 3.058 L 182.636 3.058 L 182.636 15.668 C 182.864 15.243 183.13 14.838 183.43 14.46 C 184.028 13.708 184.739 13.131 185.56 12.727 C 186.381 12.323 187.342 12.121 188.442 12.121 C 189.611 12.121 190.649 12.323 191.554 12.727 C 192.458 13.131 193.224 13.757 193.851 14.606 C 194.477 15.455 194.95 16.562 195.271 17.927 C 195.591 19.277 195.751 20.899 195.751 22.792 L 195.751 24.902 C 195.751 26.725 195.591 28.306 195.271 29.642 C 194.95 30.979 194.477 32.086 193.851 32.962 C 193.224 33.84 192.458 34.494 191.554 34.926 C 190.662 35.357 189.639 35.573 188.484 35.573 C 187.356 35.573 186.367 35.371 185.518 34.967 C 184.678 34.571 183.937 33.993 183.346 33.276 C 183.06 32.92 182.805 32.54 182.583 32.141 L 182.469 35.134 L 180.298 35.134 Z M 182.636 29.609 C 182.778 29.943 182.938 30.267 183.117 30.582 C 183.59 31.404 184.23 32.072 185.038 32.587 C 185.845 33.088 186.834 33.339 188.003 33.339 C 188.95 33.339 189.757 33.172 190.426 32.838 C 191.108 32.489 191.672 31.967 192.117 31.271 C 192.563 30.575 192.89 29.705 193.099 28.661 C 193.308 27.603 193.412 26.35 193.412 24.902 L 193.412 22.793 C 193.412 21.359 193.308 20.113 193.099 19.055 C 192.904 17.983 192.584 17.099 192.138 16.402 C 191.707 15.706 191.143 15.191 190.447 14.857 C 189.765 14.509 188.936 14.335 187.962 14.335 C 187.001 14.335 186.173 14.516 185.476 14.878 C 184.794 15.226 184.223 15.692 183.764 16.277 C 183.318 16.863 182.959 17.51 182.699 18.198 C 182.678 18.253 182.657 18.308 182.636 18.363 Z M 169.489 35.03 C 168.668 35.392 167.742 35.573 166.712 35.573 C 165.473 35.573 164.387 35.337 163.454 34.863 C 162.535 34.39 161.818 33.673 161.303 32.712 C 160.802 31.751 160.551 30.568 160.551 29.162 C 160.551 28.118 160.725 27.157 161.073 26.28 C 161.435 25.403 161.971 24.644 162.681 24.004 C 163.391 23.35 164.282 22.841 165.354 22.479 C 166.426 22.117 167.672 21.937 169.092 21.937 L 172.914 21.937 L 172.914 18.783 C 172.914 17.725 172.733 16.869 172.371 16.215 C 172.009 15.546 171.48 15.059 170.784 14.753 C 170.088 14.446 169.232 14.293 168.215 14.293 C 167.255 14.293 166.398 14.488 165.647 14.878 C 164.909 15.254 164.331 15.783 163.913 16.465 C 163.51 17.133 163.308 17.906 163.308 18.783 L 160.99 18.762 C 160.988 17.907 161.166 17.06 161.512 16.277 C 161.857 15.474 162.361 14.749 162.994 14.147 C 163.635 13.521 164.401 13.026 165.292 12.664 C 166.197 12.303 167.199 12.121 168.299 12.121 C 169.649 12.121 170.847 12.337 171.891 12.769 C 172.935 13.2 173.749 13.91 174.334 14.899 C 174.933 15.887 175.232 17.196 175.232 18.825 L 175.232 30.373 C 175.233 31.19 175.282 32.006 175.378 32.817 C 175.489 33.652 175.636 34.334 175.817 34.863 L 175.817 35.135 L 173.353 35.135 C 173.199 34.647 173.088 34.028 173.018 33.276 C 172.979 32.84 172.951 32.416 172.933 32.003 C 172.58 32.577 172.142 33.12 171.619 33.631 C 171.021 34.202 170.31 34.668 169.489 35.03 Z M 172.141 30.791 C 172.465 30.346 172.722 29.888 172.914 29.416 L 172.914 23.92 L 169.447 23.92 C 168.361 23.92 167.408 24.039 166.586 24.275 C 165.765 24.512 165.076 24.853 164.519 25.299 C 163.976 25.744 163.565 26.273 163.287 26.886 C 163.008 27.498 162.869 28.194 162.869 28.974 C 162.869 29.976 163.029 30.798 163.349 31.438 C 163.67 32.065 164.136 32.531 164.749 32.838 C 165.375 33.13 166.12 33.276 166.983 33.276 C 168.125 33.276 169.127 33.053 169.99 32.608 C 170.867 32.148 171.585 31.543 172.141 30.791 Z M 158.172 35.111 L 158.172 32.876 L 145.683 32.876 L 145.683 4.705 L 143.261 4.705 L 143.261 35.111 Z" fill="transparent" height="40px" id="M2BfzCDhV" width="195.75089033842914px"><path d="M 17.878 17.65 C 19.437 17.65 20.701 16.386 20.701 14.827 C 20.701 13.268 19.437 12.004 17.878 12.004 C 16.319 12.004 15.055 13.268 15.055 14.827 C 15.055 16.386 16.319 17.65 17.878 17.65 Z M 17.408 34.117 C 18.967 34.117 20.231 32.853 20.231 31.294 C 20.231 29.735 18.967 28.471 17.408 28.471 C 15.849 28.471 14.585 29.735 14.585 31.294 C 14.585 32.853 15.849 34.117 17.408 34.117 Z M 15.055 10.122 C 15.575 10.122 15.996 9.701 15.996 9.181 C 15.996 8.662 15.575 8.24 15.055 8.24 C 14.536 8.24 14.114 8.662 14.114 9.181 C 14.114 9.701 14.536 10.122 15.055 10.122 Z M 13.879 23.296 C 14.269 23.296 14.585 22.98 14.585 22.59 C 14.585 22.2 14.269 21.884 13.879 21.884 C 13.489 21.884 13.173 22.2 13.173 22.59 C 13.173 22.98 13.489 23.296 13.879 23.296 Z M 31.993 24.001 C 32.382 24.001 32.698 23.686 32.698 23.296 C 32.698 22.906 32.382 22.59 31.993 22.59 C 31.603 22.59 31.287 22.906 31.287 23.296 C 31.287 23.686 31.603 24.001 31.993 24.001 Z M 25.171 34.587 C 25.56 34.587 25.876 34.271 25.876 33.882 C 25.876 33.492 25.56 33.176 25.171 33.176 C 24.781 33.176 24.465 33.492 24.465 33.882 C 24.465 34.271 24.781 34.587 25.171 34.587 Z M 23.524 20.002 C 24.044 20.002 24.465 19.581 24.465 19.061 C 24.465 18.542 24.044 18.121 23.524 18.121 C 23.004 18.121 22.583 18.542 22.583 19.061 C 22.583 19.581 23.004 20.002 23.524 20.002 Z M 19.995 25.178 C 20.905 25.178 21.642 24.44 21.642 23.531 C 21.642 22.622 20.905 21.884 19.995 21.884 C 19.086 21.884 18.349 22.622 18.349 23.531 C 18.349 24.44 19.086 25.178 19.995 25.178 Z M 30.111 9.181 C 30.89 9.181 31.522 8.549 31.522 7.77 C 31.522 6.99 30.89 6.359 30.111 6.359 C 29.331 6.359 28.699 6.99 28.699 7.77 C 28.699 8.549 29.331 9.181 30.111 9.181 Z M 29.523 19.767 C 31.666 19.767 33.404 18.029 33.404 15.886 C 33.404 13.742 31.666 12.004 29.523 12.004 C 27.379 12.004 25.641 13.742 25.641 15.886 C 25.641 18.029 27.379 19.767 29.523 19.767 Z M 22.818 11.063 C 23.988 11.063 24.935 10.115 24.935 8.946 C 24.935 7.777 23.988 6.829 22.818 6.829 C 21.649 6.829 20.701 7.777 20.701 8.946 C 20.701 10.115 21.649 11.063 22.818 11.063 Z M 27.994 31.294 C 29.942 31.294 31.522 29.714 31.522 27.765 C 31.522 25.817 29.942 24.237 27.994 24.237 C 26.045 24.237 24.465 25.817 24.465 27.765 C 24.465 29.714 26.045 31.294 27.994 31.294 Z M 7.824 39.998 C 6.965 40.017 6.107 39.91 5.279 39.68 C 4.689 39.514 4.156 39.188 3.738 38.739 C 3.296 38.229 2.982 37.621 2.823 36.966 C 2.591 36.008 2.483 35.024 2.503 34.039 L 2.503 26.276 C 2.503 24.832 2.279 23.78 1.821 23.065 C 1.387 22.424 0.743 21.955 0 21.738 L 0 17.817 C 1.254 17.396 2.51 16.323 2.51 13.722 L 2.51 5.959 C 2.51 3.752 2.917 2.195 3.717 1.303 C 4.517 0.412 5.926 0.007 7.946 0.007 L 10.586 0.007 L 10.586 3.879 L 10.496 3.879 C 9.975 3.873 9.454 3.903 8.937 3.968 C 8.469 4.02 8.029 4.214 7.676 4.526 C 7.345 4.857 7.129 5.285 7.057 5.747 C 6.971 6.253 6.933 6.765 6.942 7.278 L 6.942 14.133 C 6.949 14.818 6.909 15.503 6.822 16.182 C 6.766 16.619 6.645 17.045 6.462 17.445 C 6.293 17.8 6.058 18.119 5.77 18.386 C 5.367 18.756 4.94 19.099 4.491 19.412 L 3.613 20.033 L 4.51 20.626 C 4.949 20.906 5.356 21.235 5.721 21.607 C 6.014 21.915 6.257 22.267 6.441 22.651 C 6.634 23.067 6.762 23.51 6.822 23.964 C 6.905 24.6 6.944 25.242 6.94 25.883 L 6.94 32.738 C 6.931 33.238 6.97 33.737 7.055 34.23 C 7.123 34.679 7.327 35.098 7.638 35.429 C 7.971 35.747 8.393 35.954 8.847 36.022 C 9.379 36.109 9.918 36.147 10.456 36.138 L 10.586 36.138 L 10.586 39.998 Z M 39.224 39.998 C 40.083 40.017 40.941 39.91 41.769 39.68 C 42.359 39.514 42.892 39.188 43.31 38.739 C 43.749 38.23 44.06 37.624 44.218 36.97 C 44.45 36.013 44.558 35.029 44.538 34.044 L 44.538 26.281 C 44.538 24.837 44.761 23.785 45.22 23.07 C 45.654 22.425 46.301 21.953 47.048 21.736 L 47.048 17.817 C 45.794 17.396 44.538 16.323 44.538 13.722 L 44.538 5.959 C 44.538 3.752 44.131 2.195 43.331 1.303 C 42.531 0.412 41.122 0 39.097 0 L 36.462 0 L 36.462 3.879 L 36.552 3.879 C 37.073 3.873 37.594 3.903 38.111 3.968 C 38.579 4.02 39.019 4.214 39.372 4.526 C 39.703 4.857 39.919 5.285 39.991 5.747 C 40.077 6.253 40.115 6.765 40.106 7.278 L 40.106 14.133 C 40.097 14.818 40.135 15.503 40.219 16.182 C 40.275 16.619 40.396 17.045 40.579 17.445 C 40.748 17.8 40.983 18.119 41.27 18.386 C 41.674 18.756 42.101 19.099 42.55 19.412 L 43.428 20.033 L 42.531 20.626 C 42.092 20.906 41.685 21.235 41.32 21.607 C 41.026 21.915 40.784 22.267 40.6 22.651 C 40.406 23.07 40.278 23.516 40.219 23.973 C 40.138 24.606 40.1 25.243 40.106 25.881 L 40.106 32.736 C 40.114 33.236 40.076 33.735 39.991 34.227 C 39.935 34.683 39.728 35.107 39.403 35.432 C 39.078 35.757 38.654 35.964 38.198 36.02 C 37.666 36.106 37.128 36.145 36.589 36.135 L 36.462 36.135 L 36.462 39.998 Z" fill="var(--token-96a122a0-d7da-4848-88c1-f911f67c4fb5, rgb(164, 167, 174))" height="40px" id="zHrHcmVxg" width="47.0479220301923px"/><path d="M 32.398 29.695 C 31.84 30.564 31.158 31.247 30.355 31.742 C 29.533 32.244 28.566 32.494 27.452 32.494 C 26.296 32.494 25.259 32.265 24.34 31.805 C 23.436 31.346 22.656 30.663 22.002 29.759 C 21.361 28.854 20.874 27.733 20.54 26.396 C 20.206 25.046 20.039 23.48 20.039 21.698 L 20.039 19.922 C 20.039 18.071 20.206 16.47 20.54 15.119 C 20.874 13.755 21.361 12.62 22.002 11.715 C 22.656 10.81 23.443 10.142 24.361 9.711 C 25.28 9.279 26.317 9.063 27.473 9.063 C 28.601 9.063 29.575 9.321 30.397 9.836 C 31.073 10.249 31.665 10.808 32.172 11.514 L 32.172 0 L 37.038 0 L 37.038 32.077 L 32.631 32.097 Z M 32.172 15.463 C 32.045 15.205 31.898 14.958 31.733 14.722 C 31.399 14.249 30.988 13.88 30.501 13.616 C 30.028 13.337 29.471 13.198 28.83 13.198 C 28.12 13.198 27.515 13.337 27.014 13.616 C 26.512 13.88 26.109 14.291 25.802 14.848 C 25.496 15.391 25.266 16.087 25.113 16.936 C 24.974 17.771 24.904 18.767 24.904 19.922 L 24.904 21.698 C 24.904 22.853 24.974 23.849 25.113 24.684 C 25.252 25.519 25.475 26.208 25.782 26.751 C 26.088 27.28 26.492 27.677 26.993 27.942 C 27.494 28.192 28.1 28.317 28.81 28.317 C 29.701 28.317 30.424 28.095 30.981 27.649 C 31.478 27.261 31.875 26.757 32.172 26.137 Z M 42.583 29.884 C 41.79 29.007 41.184 27.935 40.766 26.668 C 40.349 25.387 40.14 23.904 40.14 22.22 L 40.14 20.048 C 40.14 18.141 40.356 16.498 40.787 15.12 C 41.233 13.727 41.845 12.586 42.625 11.694 C 43.405 10.804 44.323 10.142 45.381 9.711 C 46.453 9.279 47.616 9.063 48.869 9.063 C 50.289 9.063 51.521 9.293 52.565 9.752 C 53.609 10.212 54.466 10.901 55.134 11.82 C 55.816 12.739 56.317 13.873 56.637 15.224 C 56.972 16.574 57.139 18.127 57.139 19.881 L 57.139 22.324 L 45.006 22.324 C 45.012 23.406 45.109 24.325 45.298 25.081 C 45.507 25.86 45.813 26.501 46.217 27.002 C 46.621 27.489 47.108 27.851 47.679 28.088 C 48.263 28.311 48.939 28.422 49.704 28.422 C 50.832 28.422 51.8 28.213 52.607 27.795 C 53.429 27.364 54.139 26.807 54.737 26.125 L 56.888 29.111 C 56.484 29.654 55.941 30.19 55.259 30.719 C 54.577 31.234 53.749 31.659 52.774 31.993 C 51.814 32.327 50.686 32.494 49.391 32.494 C 47.929 32.494 46.628 32.278 45.486 31.847 C 44.344 31.401 43.377 30.747 42.583 29.884 Z M 52.336 18.649 L 52.336 18.127 C 52.308 17.096 52.182 16.212 51.96 15.475 C 51.737 14.723 51.375 14.152 50.874 13.762 C 50.386 13.358 49.711 13.156 48.848 13.156 C 48.222 13.156 47.665 13.275 47.178 13.511 C 46.69 13.748 46.286 14.131 45.966 14.66 C 45.66 15.189 45.423 15.899 45.256 16.79 C 45.153 17.33 45.082 17.95 45.043 18.649 Z M 0 21.698 L 0 19.881 C 0 18.127 0.216 16.574 0.647 15.224 C 1.079 13.873 1.692 12.746 2.485 11.841 C 3.293 10.922 4.239 10.233 5.325 9.773 C 6.411 9.3 7.608 9.063 8.917 9.063 C 10.254 9.063 11.465 9.3 12.551 9.773 C 13.65 10.233 14.597 10.922 15.391 11.841 C 16.198 12.746 16.818 13.873 17.249 15.224 C 17.681 16.574 17.897 18.127 17.897 19.881 L 17.897 21.698 C 17.897 23.452 17.681 25.004 17.249 26.355 C 16.818 27.705 16.198 28.84 15.391 29.759 C 14.597 30.663 13.658 31.346 12.572 31.805 C 11.486 32.265 10.281 32.494 8.959 32.494 C 7.65 32.494 6.446 32.265 5.346 31.805 C 4.26 31.346 3.313 30.663 2.506 29.759 C 1.698 28.84 1.079 27.705 0.647 26.355 C 0.216 25.004 0 23.452 0 21.698 Z M 4.866 19.881 L 4.866 21.698 C 4.866 22.825 4.963 23.814 5.158 24.663 C 5.353 25.498 5.631 26.194 5.993 26.751 C 6.355 27.308 6.787 27.726 7.288 28.004 C 7.789 28.283 8.346 28.422 8.959 28.422 C 9.641 28.422 10.233 28.283 10.734 28.004 C 11.249 27.726 11.674 27.308 12.008 26.751 C 12.356 26.194 12.613 25.498 12.781 24.663 C 12.948 23.814 13.031 22.825 13.031 21.698 L 13.031 19.881 C 13.031 18.767 12.934 17.792 12.739 16.957 C 12.544 16.108 12.265 15.405 11.903 14.848 C 11.541 14.277 11.103 13.853 10.588 13.574 C 10.087 13.296 9.53 13.156 8.917 13.156 C 8.318 13.156 7.769 13.296 7.267 13.574 C 6.78 13.853 6.355 14.277 5.993 14.848 C 5.631 15.405 5.353 16.108 5.158 16.957 C 4.963 17.792 4.866 18.767 4.866 19.881 Z" fill="var(--token-96a122a0-d7da-4848-88c1-f911f67c4fb5, rgb(164, 167, 174))" height="32.494119324286814px" id="pjJ2gYolh" transform="translate(79.041 3.058)" width="57.13875892596775px"/><path d="M 20.487 20.904 L 15.433 20.904 C 15.349 22.436 15.133 23.647 14.785 24.538 C 14.437 25.429 13.901 26.062 13.177 26.438 C 12.467 26.814 11.514 27.002 10.316 27.002 C 9.314 27.002 8.479 26.814 7.81 26.438 C 7.142 26.048 6.606 25.484 6.202 24.747 C 5.799 23.995 5.506 23.083 5.325 22.011 C 5.144 20.939 5.054 19.707 5.054 18.315 L 5.054 12.885 C 5.054 11.437 5.158 10.177 5.367 9.105 C 5.59 8.019 5.917 7.121 6.349 6.411 C 6.794 5.687 7.358 5.144 8.04 4.782 C 8.736 4.42 9.565 4.239 10.525 4.239 C 11.681 4.239 12.6 4.441 13.282 4.845 C 13.978 5.249 14.493 5.91 14.827 6.829 C 15.175 7.734 15.384 8.945 15.454 10.463 L 20.507 10.463 C 20.382 8.221 19.93 6.321 19.15 4.761 C 18.37 3.202 17.264 2.019 15.83 1.211 C 14.395 0.404 12.627 0 10.525 0 C 8.882 0 7.407 0.292 6.098 0.877 C 4.803 1.448 3.703 2.29 2.798 3.404 C 1.893 4.518 1.197 5.875 0.71 7.476 C 0.237 9.077 0 10.894 0 12.927 L 0 18.315 C 0 20.347 0.23 22.164 0.689 23.765 C 1.163 25.366 1.845 26.723 2.736 27.837 C 3.627 28.937 4.706 29.779 5.973 30.364 C 7.253 30.949 8.701 31.241 10.316 31.241 C 12.447 31.241 14.249 30.838 15.725 30.03 C 17.215 29.223 18.356 28.053 19.15 26.522 C 19.943 24.976 20.389 23.104 20.487 20.904 Z" fill="var(--token-96a122a0-d7da-4848-88c1-f911f67c4fb5, rgb(164, 167, 174))" height="31.24123297535384px" id="DkVrCxe2y" transform="translate(56.458 4.234)" width="20.507249114192405px"/><path d="M 19.746 0 L 22.085 0 L 22.085 12.61 C 22.313 12.185 22.579 11.78 22.879 11.402 C 23.477 10.65 24.188 10.072 25.009 9.669 C 25.83 9.265 26.791 9.063 27.891 9.063 C 29.06 9.063 30.098 9.265 31.002 9.669 C 31.907 10.072 32.673 10.699 33.3 11.548 C 33.926 12.397 34.399 13.504 34.719 14.869 C 35.04 16.219 35.2 17.841 35.2 19.734 L 35.2 21.843 C 35.2 23.667 35.04 25.248 34.719 26.584 C 34.399 27.921 33.926 29.027 33.3 29.904 C 32.673 30.782 31.907 31.436 31.002 31.867 C 30.111 32.299 29.088 32.515 27.933 32.515 C 26.805 32.515 25.816 32.313 24.967 31.909 C 24.127 31.513 23.386 30.935 22.795 30.218 C 22.509 29.862 22.254 29.482 22.032 29.082 L 21.918 32.076 L 19.746 32.076 Z M 22.085 26.551 C 22.227 26.884 22.387 27.209 22.566 27.524 C 23.039 28.345 23.679 29.014 24.487 29.529 C 25.294 30.03 26.283 30.281 27.452 30.281 C 28.399 30.281 29.206 30.113 29.875 29.779 C 30.557 29.431 31.121 28.909 31.566 28.213 C 32.012 27.517 32.339 26.647 32.548 25.603 C 32.757 24.545 32.861 23.292 32.861 21.844 L 32.861 19.734 C 32.861 18.3 32.757 17.055 32.548 15.997 C 32.353 14.925 32.033 14.041 31.587 13.344 C 31.156 12.648 30.592 12.133 29.896 11.799 C 29.213 11.451 28.385 11.277 27.411 11.277 C 26.45 11.277 25.622 11.458 24.925 11.82 C 24.243 12.168 23.672 12.634 23.213 13.219 C 22.767 13.805 22.408 14.452 22.148 15.14 C 22.127 15.195 22.106 15.25 22.085 15.305 Z M 8.938 31.972 C 8.117 32.334 7.191 32.515 6.161 32.515 C 4.922 32.515 3.836 32.278 2.903 31.805 C 1.984 31.332 1.267 30.615 0.752 29.654 C 0.251 28.693 0 27.51 0 26.104 C 0 25.06 0.174 24.099 0.522 23.222 C 0.884 22.345 1.42 21.586 2.13 20.946 C 2.84 20.292 3.731 19.783 4.803 19.421 C 5.875 19.059 7.121 18.878 8.541 18.878 L 12.363 18.878 L 12.363 15.725 C 12.363 14.667 12.182 13.811 11.82 13.156 C 11.458 12.488 10.929 12.001 10.233 11.694 C 9.537 11.388 8.681 11.235 7.664 11.235 C 6.704 11.235 5.847 11.43 5.096 11.82 C 4.358 12.196 3.78 12.725 3.362 13.407 C 2.959 14.075 2.757 14.848 2.757 15.725 L 0.439 15.704 C 0.437 14.848 0.615 14.002 0.961 13.219 C 1.306 12.416 1.81 11.691 2.443 11.089 C 3.084 10.463 3.849 9.968 4.741 9.606 C 5.646 9.244 6.648 9.063 7.748 9.063 C 9.098 9.063 10.295 9.279 11.34 9.711 C 12.384 10.142 13.198 10.852 13.783 11.841 C 14.382 12.829 14.681 14.138 14.681 15.767 L 14.681 27.315 C 14.682 28.132 14.731 28.948 14.827 29.759 C 14.938 30.594 15.085 31.276 15.266 31.805 L 15.266 32.077 L 12.802 32.077 C 12.648 31.589 12.537 30.97 12.467 30.218 C 12.428 29.782 12.399 29.358 12.382 28.945 C 12.029 29.519 11.591 30.062 11.068 30.573 C 10.47 31.144 9.759 31.61 8.938 31.972 Z M 11.59 27.733 C 11.913 27.288 12.171 26.83 12.363 26.357 L 12.363 20.862 L 8.896 20.862 C 7.81 20.862 6.857 20.981 6.035 21.217 C 5.214 21.454 4.525 21.795 3.968 22.24 C 3.425 22.686 3.014 23.215 2.736 23.828 C 2.457 24.44 2.318 25.136 2.318 25.916 C 2.318 26.918 2.478 27.74 2.798 28.38 C 3.119 29.007 3.585 29.473 4.198 29.779 C 4.824 30.072 5.569 30.218 6.432 30.218 C 7.574 30.218 8.576 29.995 9.439 29.55 C 10.316 29.09 11.033 28.485 11.59 27.733 Z" fill="var(--token-96a122a0-d7da-4848-88c1-f911f67c4fb5, rgb(164, 167, 174))" height="32.515055014729725px" id="TGo_5aBz1" transform="translate(160.551 3.058)" width="35.19984968901508px"/><path d="M 14.911 30.406 L 14.911 28.171 L 2.422 28.171 L 2.422 0 L 0 0 L 0 30.406 Z" fill="var(--token-96a122a0-d7da-4848-88c1-f911f67c4fb5, rgb(164, 167, 174))" height="30.405897084690146px" id="fXXqw0qY_" transform="translate(143.261 4.705)" width="14.910663314479848px"/></g></svg>