<svg display="block" role="presentation" viewBox="0 0 156 40" xmlns="http://www.w3.org/2000/svg"><g d="M 0 0 L 155.963 0 L 155.963 39.991 L 0 39.991 Z M 39.991 0 L 39.991 39.991 L 0 39.991 L 0 0 Z M 0 0 C -0.001 5.303 2.104 10.389 5.853 14.139 C 9.603 17.889 14.689 19.997 19.992 19.999 L 19.992 0 Z M 19.992 19.999 L 39.991 19.999 L 39.991 0 C 34.686 -0.001 29.598 2.106 25.847 5.857 C 22.097 9.607 19.99 14.695 19.992 19.999 Z M 19.992 19.999 L 19.992 39.991 L 39.991 39.991 C 39.991 34.688 37.884 29.602 34.133 25.853 C 30.382 22.104 25.296 19.998 19.992 19.999 Z M 19.992 19.998 L 0 19.998 L 0 39.991 C 5.303 39.99 10.388 37.883 14.137 34.134 C 17.886 30.385 19.992 25.3 19.992 19.998 Z M 155.768 6.469 L 155.768 32.654 L 152.78 32.654 L 152.78 6.469 Z M 140.171 32.935 C 138.331 32.935 136.791 32.461 135.549 31.512 C 134.319 30.563 133.704 29.163 133.704 27.312 C 133.704 26.245 133.909 25.378 134.319 24.711 C 134.741 24.043 135.297 23.521 135.988 23.147 C 136.691 22.76 137.482 22.467 138.361 22.268 C 139.261 22.067 140.17 21.909 141.085 21.793 C 142.268 21.629 143.2 21.506 143.879 21.424 C 144.559 21.342 145.039 21.207 145.32 21.02 C 145.613 20.833 145.76 20.505 145.76 20.036 L 145.76 19.86 C 145.76 18.853 145.396 18.021 144.67 17.365 C 143.955 16.709 142.948 16.381 141.647 16.381 C 140.358 16.381 139.298 16.697 138.466 17.33 C 137.646 17.95 137.201 18.724 137.131 19.649 L 134.09 19.649 C 134.149 18.513 134.5 17.505 135.145 16.626 C 135.789 15.736 136.668 15.033 137.781 14.518 C 138.894 14.002 140.183 13.744 141.647 13.744 C 143.815 13.744 145.531 14.307 146.796 15.432 C 148.073 16.545 148.712 18.021 148.712 19.86 L 148.712 32.654 L 145.76 32.654 L 145.76 30.018 L 145.689 30.018 C 145.467 30.463 145.138 30.914 144.705 31.371 C 144.272 31.816 143.686 32.191 142.948 32.496 C 142.221 32.789 141.296 32.935 140.171 32.935 Z M 140.593 30.264 C 141.811 30.264 142.801 30.047 143.563 29.614 C 144.324 29.169 144.881 28.594 145.232 27.891 C 145.584 27.189 145.76 26.433 145.76 25.624 L 145.76 23.305 C 145.537 23.515 144.945 23.709 143.985 23.885 C 143.024 24.049 142.01 24.207 140.944 24.359 C 140.229 24.453 139.55 24.617 138.906 24.851 C 138.273 25.074 137.757 25.396 137.359 25.818 C 136.961 26.228 136.762 26.784 136.762 27.487 C 136.762 28.354 137.101 29.034 137.781 29.526 C 138.472 30.018 139.409 30.264 140.593 30.264 Z M 117.122 40 L 117.122 37.364 L 118.95 37.364 C 120.051 37.364 120.889 36.62 121.463 35.132 L 122.483 32.496 L 115.295 14.096 L 118.528 14.096 L 122.535 24.781 C 122.794 25.476 123.046 26.173 123.291 26.872 C 123.547 27.56 123.793 28.251 124.029 28.946 L 124.767 26.872 C 125.025 26.169 125.283 25.472 125.541 24.781 L 129.477 14.096 L 132.658 14.096 L 124.099 36.099 C 123.619 37.34 122.934 38.301 122.043 38.981 C 121.153 39.66 120.122 40 118.95 40 Z M 109.925 32.654 L 109.925 14.096 L 112.913 14.096 L 112.913 32.654 Z M 111.419 10.476 C 110.857 10.476 110.376 10.277 109.978 9.878 C 109.58 9.48 109.38 8.999 109.38 8.437 C 109.38 7.875 109.58 7.394 109.978 6.996 C 110.376 6.598 110.857 6.398 111.419 6.398 C 111.981 6.398 112.462 6.598 112.86 6.996 C 113.259 7.394 113.458 7.875 113.458 8.437 C 113.458 8.999 113.259 9.48 112.86 9.878 C 112.462 10.276 111.981 10.476 111.419 10.476 Z M 97.035 33.005 C 95.43 33.005 94.018 32.601 92.799 31.793 C 91.592 30.973 90.655 29.842 89.987 28.401 C 89.32 26.948 88.986 25.273 88.986 23.375 C 88.986 21.465 89.32 19.79 89.987 18.349 C 90.655 16.896 91.592 15.765 92.799 14.957 C 94.018 14.149 95.43 13.744 97.035 13.744 C 98.241 13.744 99.36 14.002 100.391 14.518 C 101.422 15.021 102.237 15.795 102.834 16.837 L 102.869 16.837 L 102.869 6.469 L 105.857 6.469 L 105.857 32.654 L 102.939 32.654 L 102.939 29.842 L 102.904 29.842 C 102.237 30.908 101.393 31.705 100.374 32.232 C 99.354 32.748 98.241 33.005 97.035 33.005 Z M 97.491 30.317 C 99.214 30.317 100.579 29.684 101.586 28.419 C 102.605 27.153 103.115 25.472 103.115 23.375 C 103.115 21.278 102.605 19.597 101.586 18.331 C 100.579 17.054 99.214 16.416 97.491 16.416 C 95.886 16.416 94.568 17.007 93.537 18.191 C 92.518 19.374 92.008 21.102 92.008 23.375 C 92.008 25.648 92.518 27.376 93.537 28.559 C 94.568 29.731 95.886 30.317 97.491 30.317 Z M 77.325 32.935 C 75.486 32.935 73.945 32.461 72.703 31.512 C 71.473 30.563 70.858 29.163 70.858 27.312 C 70.858 26.245 71.063 25.378 71.473 24.711 C 71.895 24.043 72.451 23.521 73.142 23.147 C 73.845 22.76 74.636 22.467 75.515 22.268 C 76.415 22.067 77.324 21.909 78.239 21.793 C 79.422 21.629 80.354 21.506 81.033 21.424 C 81.713 21.342 82.193 21.207 82.474 21.02 C 82.767 20.833 82.914 20.505 82.914 20.036 L 82.914 19.86 C 82.914 18.853 82.55 18.021 81.824 17.365 C 81.109 16.709 80.102 16.381 78.801 16.381 C 77.512 16.381 76.452 16.697 75.62 17.33 C 74.8 17.95 74.355 18.724 74.285 19.649 L 71.244 19.649 C 71.303 18.513 71.654 17.505 72.299 16.626 C 72.943 15.736 73.822 15.033 74.935 14.518 C 76.048 14.002 77.337 13.744 78.801 13.744 C 80.969 13.744 82.685 14.307 83.95 15.432 C 85.227 16.545 85.866 18.021 85.866 19.86 L 85.866 32.654 L 82.914 32.654 L 82.914 30.018 L 82.843 30.018 C 82.621 30.463 82.293 30.914 81.859 31.371 C 81.426 31.816 80.84 32.191 80.102 32.496 C 79.375 32.789 78.45 32.935 77.325 32.935 Z M 77.747 30.264 C 78.965 30.264 79.955 30.047 80.717 29.614 C 81.478 29.169 82.035 28.594 82.386 27.891 C 82.738 27.189 82.914 26.433 82.914 25.624 L 82.914 23.305 C 82.691 23.515 82.099 23.709 81.139 23.885 C 80.178 24.049 79.164 24.207 78.098 24.359 C 77.384 24.453 76.704 24.617 76.06 24.851 C 75.427 25.074 74.912 25.396 74.513 25.818 C 74.115 26.228 73.916 26.784 73.916 27.487 C 73.916 28.354 74.255 29.034 74.935 29.526 C 75.626 30.018 76.563 30.264 77.747 30.264 Z M 49.988 32.654 L 49.988 6.469 L 59.707 6.469 C 62.437 6.469 64.598 7.184 66.191 8.613 C 67.796 10.03 68.599 11.964 68.599 14.412 C 68.599 16.275 68.095 17.851 67.088 19.14 C 66.092 20.428 64.739 21.336 63.028 21.864 L 68.915 32.654 L 65.225 32.654 L 59.707 22.373 L 53.152 22.373 L 53.152 32.654 Z M 53.152 19.561 L 59.636 19.561 C 61.452 19.561 62.876 19.105 63.907 18.191 C 64.95 17.265 65.471 16.006 65.471 14.412 C 65.471 12.819 64.944 11.565 63.889 10.651 C 62.847 9.738 61.417 9.281 59.601 9.281 L 53.152 9.281 Z" fill="transparent" height="40.00000088081343px" id="T5EQUcmdY" width="155.96335050846324px"><path d="M 0 0 L 155.963 0 L 155.963 39.991 L 0 39.991 Z" fill="transparent" height="39.99060253181536px" id="FKV3uEFuX" transform="translate(0 0)" width="155.96334987407977px"/><g d="M 39.991 0 L 39.991 39.991 L 0 39.991 L 0 0 Z M 0 0 C -0.001 5.303 2.104 10.389 5.853 14.139 C 9.603 17.889 14.689 19.997 19.992 19.999 L 19.992 0 Z M 19.992 19.999 L 39.991 19.999 L 39.991 0 C 34.686 -0.001 29.598 2.106 25.847 5.857 C 22.097 9.607 19.99 14.695 19.992 19.999 Z M 19.992 19.999 L 19.992 39.991 L 39.991 39.991 C 39.991 34.688 37.884 29.602 34.133 25.853 C 30.382 22.104 25.296 19.998 19.992 19.999 Z M 19.992 19.998 L 0 19.998 L 0 39.991 C 5.303 39.99 10.388 37.883 14.137 34.134 C 17.886 30.385 19.992 25.3 19.992 19.998 Z" fill="transparent" height="39.99060299464303px" id="XxIIdPjk8" transform="translate(0 0)" width="39.99060413255105px"><path d="M 39.991 0 L 39.991 39.991 L 0 39.991 L 0 0 Z" fill="transparent" height="39.99060253181536px" id="MNHVDffXd" transform="translate(0 0)" width="39.990602531815284px"/><path d="M 0 0 C -0.001 5.303 2.104 10.389 5.853 14.139 C 9.603 17.889 14.689 19.997 19.992 19.999 L 19.992 0 Z M 19.992 19.999 L 39.991 19.999 L 39.991 0 C 34.686 -0.001 29.598 2.106 25.847 5.857 C 22.097 9.607 19.99 14.695 19.992 19.999 Z M 19.992 19.999 L 19.992 39.991 L 39.991 39.991 C 39.991 34.688 37.884 29.602 34.133 25.853 C 30.382 22.104 25.296 19.998 19.992 19.999 Z M 19.992 19.998 L 0 19.998 L 0 39.991 C 5.303 39.99 10.388 37.883 14.137 34.134 C 17.886 30.385 19.992 25.3 19.992 19.998 Z" fill="var(--token-96a122a0-d7da-4848-88c1-f911f67c4fb5, rgb(164, 167, 174))" height="39.99060299464301px" id="YTe3TwQrn" transform="translate(0 0)" width="39.99060413255109px"/></g><path d="M 105.78 0.07 L 105.78 26.256 L 102.792 26.256 L 102.792 0.07 Z M 90.183 26.537 C 88.343 26.537 86.803 26.062 85.561 25.113 C 84.331 24.164 83.716 22.764 83.716 20.913 C 83.716 19.847 83.92 18.98 84.331 18.312 C 84.752 17.644 85.309 17.123 86 16.748 C 86.703 16.361 87.494 16.068 88.373 15.869 C 89.273 15.668 90.182 15.51 91.097 15.395 C 92.28 15.231 93.211 15.108 93.891 15.026 C 94.57 14.944 95.051 14.809 95.332 14.622 C 95.625 14.434 95.771 14.106 95.771 13.637 L 95.771 13.462 C 95.771 12.454 95.408 11.622 94.682 10.966 C 93.967 10.31 92.959 9.982 91.659 9.982 C 90.37 9.982 89.31 10.298 88.478 10.931 C 87.658 11.552 87.213 12.325 87.142 13.251 L 84.102 13.251 C 84.161 12.114 84.512 11.107 85.157 10.228 C 85.801 9.338 86.68 8.635 87.793 8.119 C 88.906 7.604 90.194 7.346 91.659 7.346 C 93.826 7.346 95.543 7.908 96.808 9.033 C 98.085 10.146 98.724 11.622 98.724 13.462 L 98.724 26.256 L 95.771 26.256 L 95.771 23.619 L 95.701 23.619 C 95.478 24.065 95.15 24.516 94.717 24.973 C 94.283 25.418 93.698 25.793 92.959 26.097 C 92.233 26.39 91.308 26.537 90.183 26.537 Z M 90.605 23.865 C 91.823 23.865 92.813 23.649 93.574 23.215 C 94.336 22.77 94.892 22.196 95.244 21.493 C 95.596 20.79 95.771 20.034 95.771 19.226 L 95.771 16.906 C 95.549 17.117 94.957 17.31 93.996 17.486 C 93.036 17.65 92.022 17.808 90.956 17.961 C 90.241 18.054 89.562 18.218 88.917 18.453 C 88.285 18.675 87.769 18.998 87.371 19.419 C 86.973 19.829 86.773 20.386 86.773 21.089 C 86.773 21.956 87.113 22.635 87.793 23.127 C 88.484 23.619 89.421 23.865 90.605 23.865 Z M 67.134 33.602 L 67.134 30.965 L 68.962 30.965 C 70.063 30.965 70.901 30.221 71.475 28.733 L 72.494 26.097 L 65.306 7.697 L 68.54 7.697 L 72.547 18.382 C 72.806 19.077 73.058 19.774 73.303 20.474 C 73.559 21.161 73.805 21.853 74.041 22.548 L 74.779 20.474 C 75.037 19.771 75.295 19.074 75.552 18.382 L 79.489 7.697 L 82.67 7.697 L 74.111 29.7 C 73.631 30.942 72.945 31.903 72.055 32.582 C 71.164 33.262 70.134 33.602 68.962 33.602 Z M 59.937 26.256 L 59.937 7.697 L 62.925 7.697 L 62.925 26.256 Z M 61.431 4.077 C 60.868 4.077 60.388 3.878 59.99 3.48 C 59.591 3.081 59.392 2.601 59.392 2.039 C 59.392 1.476 59.591 0.996 59.99 0.597 C 60.388 0.199 60.868 0 61.431 0 C 61.993 0 62.474 0.199 62.872 0.597 C 63.27 0.996 63.469 1.476 63.469 2.039 C 63.469 2.601 63.27 3.081 62.872 3.48 C 62.474 3.878 61.993 4.077 61.431 4.077 Z M 47.046 26.607 C 45.441 26.607 44.029 26.203 42.811 25.394 C 41.604 24.574 40.667 23.444 39.999 22.003 C 39.331 20.55 38.997 18.875 38.997 16.976 C 38.997 15.067 39.331 13.391 39.999 11.95 C 40.667 10.498 41.604 9.367 42.811 8.559 C 44.029 7.75 45.441 7.346 47.046 7.346 C 48.253 7.346 49.372 7.604 50.403 8.119 C 51.434 8.623 52.248 9.396 52.846 10.439 L 52.881 10.439 L 52.881 0.07 L 55.868 0.07 L 55.868 26.256 L 52.951 26.256 L 52.951 23.444 L 52.916 23.444 C 52.248 24.51 51.405 25.306 50.385 25.834 C 49.366 26.349 48.253 26.607 47.046 26.607 Z M 47.503 23.918 C 49.226 23.918 50.591 23.286 51.598 22.02 C 52.617 20.755 53.127 19.074 53.127 16.976 C 53.127 14.879 52.617 13.198 51.598 11.933 C 50.591 10.656 49.226 10.017 47.503 10.017 C 45.898 10.017 44.58 10.609 43.549 11.792 C 42.53 12.976 42.02 14.704 42.02 16.976 C 42.02 19.249 42.53 20.977 43.549 22.161 C 44.58 23.332 45.898 23.918 47.503 23.918 Z M 27.337 26.537 C 25.497 26.537 23.957 26.062 22.715 25.113 C 21.485 24.164 20.869 22.764 20.869 20.913 C 20.869 19.847 21.074 18.98 21.485 18.312 C 21.906 17.644 22.463 17.123 23.154 16.748 C 23.857 16.361 24.648 16.068 25.527 15.869 C 26.427 15.668 27.336 15.51 28.251 15.395 C 29.434 15.231 30.365 15.108 31.045 15.026 C 31.724 14.944 32.205 14.809 32.486 14.622 C 32.779 14.434 32.925 14.106 32.925 13.637 L 32.925 13.462 C 32.925 12.454 32.562 11.622 31.836 10.966 C 31.121 10.31 30.114 9.982 28.813 9.982 C 27.524 9.982 26.464 10.298 25.632 10.931 C 24.812 11.552 24.367 12.325 24.296 13.251 L 21.256 13.251 C 21.315 12.114 21.666 11.107 22.311 10.228 C 22.955 9.338 23.834 8.635 24.947 8.119 C 26.06 7.604 27.348 7.346 28.813 7.346 C 30.98 7.346 32.697 7.908 33.962 9.033 C 35.239 10.146 35.878 11.622 35.878 13.462 L 35.878 26.256 L 32.925 26.256 L 32.925 23.619 L 32.855 23.619 C 32.632 24.065 32.304 24.516 31.871 24.973 C 31.437 25.418 30.852 25.793 30.114 26.097 C 29.387 26.39 28.462 26.537 27.337 26.537 Z M 27.758 23.865 C 28.977 23.865 29.967 23.649 30.729 23.215 C 31.49 22.77 32.047 22.196 32.398 21.493 C 32.749 20.79 32.925 20.034 32.925 19.226 L 32.925 16.906 C 32.703 17.117 32.111 17.31 31.15 17.486 C 30.189 17.65 29.176 17.808 28.11 17.961 C 27.395 18.054 26.716 18.218 26.071 18.453 C 25.439 18.675 24.923 18.998 24.525 19.419 C 24.127 19.829 23.927 20.386 23.927 21.089 C 23.927 21.956 24.267 22.635 24.947 23.127 C 25.638 23.619 26.575 23.865 27.758 23.865 Z M 0 26.256 L 0 0.07 L 9.719 0.07 C 12.448 0.07 14.61 0.785 16.203 2.214 C 17.808 3.632 18.611 5.565 18.611 8.014 C 18.611 9.876 18.107 11.452 17.1 12.741 C 16.104 14.03 14.751 14.938 13.04 15.465 L 18.927 26.256 L 15.237 26.256 L 9.719 15.975 L 3.163 15.975 L 3.163 26.256 Z M 3.163 13.163 L 9.648 13.163 C 11.464 13.163 12.888 12.706 13.919 11.792 C 14.961 10.866 15.483 9.607 15.483 8.014 C 15.483 6.42 14.955 5.167 13.901 4.253 C 12.858 3.339 11.429 2.882 9.613 2.882 L 3.163 2.882 Z" fill="var(--token-96a122a0-d7da-4848-88c1-f911f67c4fb5, rgb(164, 167, 174))" height="33.60150472984297px" id="qeAB8HPcU" transform="translate(49.988 6.398)" width="105.77973429026429px"/></g></svg>