<svg xmlns="http://www.w3.org/2000/svg" width="833" height="200" fill="none"><path fill="#000" d="M76 90c6.627 0 12-5.373 12-12s-5.373-12-12-12-12 5.373-12 12 5.373 12 12 12Zm-2 70c6.627 0 12-5.373 12-12s-5.373-12-12-12-12 5.373-12 12 5.373 12 12 12ZM64 58a4 4 0 1 0 0-8 4 4 0 0 0 0 8Zm-5 56a3 3 0 1 0 0-6 3 3 0 0 0 0 6Zm77 3a3 3 0 1 0 0-6 3 3 0 0 0 0 6Zm-29 45a3 3 0 1 0 0-6 3 3 0 0 0 0 6Zm-7-62a4 4 0 1 0 0-8 4 4 0 0 0 0 8Zm-15 22a7 7 0 1 0 0-14 7 7 0 0 0 0 14Zm43-68a6 6 0 1 0 0-12 6 6 0 0 0 0 12Zm-2.5 45c9.113 0 16.5-7.387 16.5-16.5S134.613 66 125.5 66 109 73.387 109 82.5 116.387 99 125.5 99ZM97 62a9 9 0 0 0 9-9 9 9 0 1 0-9 9Zm22 86c8.284 0 15-6.716 15-15 0-8.284-6.716-15-15-15-8.284 0-15 6.716-15 15 0 8.284 6.716 15 15 15Zm-85.74 37a37.336 37.336 0 0 1-10.82-1.35 14.226 14.226 0 0 1-6.55-4 18 18 0 0 1-3.89-7.54 48.614 48.614 0 0 1-1.36-12.44v-33c0-6.14-.95-10.61-2.9-13.65A14.092 14.092 0 0 0 0 107.38V90.71c5.33-1.79 10.67-6.35 10.67-17.41v-33c0-9.38 1.73-16 5.13-19.79C19.2 16.72 25.19 15 33.78 15H45v16.46h-.38a48.398 48.398 0 0 0-6.63.38 9.69 9.69 0 0 0-5.36 2.37A9.38 9.38 0 0 0 30 39.4a35.09 35.09 0 0 0-.49 6.51v29.14a63.753 63.753 0 0 1-.51 8.71 18.69 18.69 0 0 1-1.53 5.37 13.22 13.22 0 0 1-2.94 4 52.316 52.316 0 0 1-5.44 4.36l-3.73 2.64 3.81 2.52a29.325 29.325 0 0 1 5.15 4.17 17.176 17.176 0 0 1 3.06 4.44 19.186 19.186 0 0 1 1.62 5.58c.353 2.705.52 5.432.5 8.16v29.14a33.999 33.999 0 0 0 .49 6.34 9.55 9.55 0 0 0 2.48 5.1 9.5 9.5 0 0 0 5.14 2.52c2.26.368 4.55.532 6.84.49H45V185H33.26Zm133.48 0a37.336 37.336 0 0 0 10.82-1.35 14.222 14.222 0 0 0 6.55-4 18.008 18.008 0 0 0 3.86-7.52 48.61 48.61 0 0 0 1.36-12.44v-33c0-6.14.95-10.61 2.9-13.65a14.09 14.09 0 0 1 7.77-5.67V90.71c-5.33-1.79-10.67-6.35-10.67-17.41v-33c0-9.38-1.73-16-5.13-19.79-3.4-3.79-9.39-5.54-18-5.54H155v16.49h.38a48.402 48.402 0 0 1 6.63.38 9.69 9.69 0 0 1 5.36 2.37A9.375 9.375 0 0 1 170 39.4c.365 2.15.529 4.33.49 6.51v29.14a63.71 63.71 0 0 0 .48 8.71 18.683 18.683 0 0 0 1.53 5.37 13.223 13.223 0 0 0 2.94 4 52.306 52.306 0 0 0 5.44 4.36l3.73 2.64-3.81 2.52a29.336 29.336 0 0 0-5.15 4.17 17.193 17.193 0 0 0-3.06 4.44 19.196 19.196 0 0 0-1.62 5.62 59.747 59.747 0 0 0-.48 8.11v29.14a34.007 34.007 0 0 1-.49 6.34 8.752 8.752 0 0 1-2.5 5.12 8.752 8.752 0 0 1-5.12 2.5c-2.261.368-4.55.532-6.84.49H155V185h11.74Z"/><path fill="#000" fill-rule="evenodd" d="M473.596 154.15c-2.375 3.694-5.271 6.595-8.687 8.701-3.492 2.131-7.605 3.196-12.339 3.196-4.913 0-9.322-.976-13.228-2.929-3.847-1.953-7.161-4.853-9.942-8.7-2.723-3.847-4.794-8.611-6.215-14.293-1.42-5.741-2.13-12.399-2.13-19.974v-7.546c0-7.871.71-14.677 2.13-20.418 1.421-5.8 3.492-10.623 6.215-14.47 2.781-3.847 6.125-6.688 10.031-8.522 3.906-1.835 8.315-2.752 13.227-2.752 4.794 0 8.937 1.095 12.429 3.284 2.876 1.756 5.392 4.134 7.545 7.134V27.915h20.685v136.357l-18.732.088-.989-10.21Zm-.964-60.5a23.48 23.48 0 0 0-1.864-3.15c-1.42-2.012-3.166-3.58-5.237-4.704-2.013-1.184-4.38-1.776-7.102-1.776-3.019 0-5.593.592-7.724 1.776-2.13 1.124-3.847 2.87-5.149 5.237-1.302 2.308-2.278 5.267-2.929 8.877-.592 3.551-.888 7.783-.888 12.695v7.546c0 4.912.296 9.144.888 12.695.592 3.551 1.539 6.48 2.841 8.788 1.302 2.249 3.018 3.936 5.149 5.06 2.13 1.066 4.705 1.598 7.723 1.598 3.788 0 6.865-.947 9.232-2.84 2.113-1.65 3.8-3.793 5.06-6.429V93.65Zm56.599 69.645c4.853 1.835 10.387 2.752 16.601 2.752 5.504 0 10.298-.71 14.381-2.13 4.143-1.421 7.664-3.226 10.564-5.416 2.9-2.249 5.208-4.527 6.925-6.835l-9.144-12.695c-2.545 2.9-5.563 5.267-9.055 7.102-3.433 1.775-7.546 2.663-12.339 2.663-3.256 0-6.126-.473-8.612-1.42-2.426-1.006-4.497-2.545-6.214-4.616-1.716-2.131-3.018-4.853-3.906-8.168-.803-3.211-1.217-7.117-1.241-11.718h51.576v-10.386c0-7.457-.71-14.056-2.131-19.797-1.361-5.74-3.491-10.564-6.391-14.47-2.841-3.906-6.481-6.836-10.919-8.789-4.439-1.953-9.677-2.93-15.713-2.93-5.327 0-10.269.918-14.826 2.753-4.498 1.834-8.404 4.646-11.718 8.433-3.314 3.788-5.918 8.64-7.812 14.56-1.835 5.858-2.752 12.842-2.752 20.95v9.232c0 7.161.888 13.464 2.663 18.909 1.776 5.386 4.35 9.943 7.724 13.671 3.373 3.67 7.486 6.451 12.339 8.345Zm-1.885-56.105c.168-2.97.471-5.604.909-7.9.71-3.789 1.716-6.807 3.018-9.056 1.361-2.249 3.077-3.876 5.149-4.882 2.071-1.007 4.439-1.51 7.102-1.51 3.669 0 6.539.859 8.611 2.575 2.13 1.657 3.669 4.084 4.616 7.28.947 3.136 1.48 6.894 1.598 11.274v2.219h-31.003Zm-191.475 12.961v-7.723c0-7.457.917-14.056 2.752-19.797 1.835-5.74 4.439-10.534 7.812-14.381 3.433-3.906 7.457-6.836 12.073-8.789 4.616-2.012 9.706-3.018 15.269-3.018 5.682 0 10.831 1.006 15.447 3.018 4.675 1.953 8.7 4.883 12.073 8.789 3.433 3.847 6.066 8.64 7.901 14.381 1.835 5.74 2.752 12.34 2.752 19.797v7.723c0 7.457-.917 14.056-2.752 19.797-1.835 5.74-4.468 10.564-7.901 14.47-3.373 3.847-7.368 6.747-11.984 8.7-4.616 1.953-9.736 2.929-15.358 2.929-5.563 0-10.683-.976-15.358-2.929-4.616-1.953-8.641-4.853-12.073-8.7-3.433-3.906-6.066-8.73-7.901-14.47-1.835-5.741-2.752-12.34-2.752-19.797Zm20.684-7.723v7.723c0 4.794.414 8.996 1.243 12.606.829 3.551 2.012 6.51 3.551 8.877 1.539 2.368 3.373 4.143 5.504 5.327 2.131 1.183 4.498 1.775 7.102 1.775 2.9 0 5.415-.592 7.546-1.775 2.189-1.184 3.995-2.959 5.415-5.327 1.479-2.367 2.574-5.326 3.285-8.877.71-3.61 1.065-7.812 1.065-12.606v-7.723c0-4.735-.414-8.878-1.243-12.429-.829-3.61-2.012-6.599-3.551-8.966-1.539-2.426-3.403-4.231-5.593-5.415-2.13-1.184-4.498-1.775-7.102-1.775-2.545 0-4.882.591-7.013 1.775-2.071 1.184-3.876 2.989-5.415 5.415-1.539 2.367-2.722 5.356-3.551 8.966-.829 3.551-1.243 7.694-1.243 12.429Z" clip-rule="evenodd"/><path fill="#000" d="M327.033 122.104h-21.484c-.355 6.51-1.272 11.659-2.752 15.447-1.479 3.787-3.758 6.48-6.835 8.078-3.019 1.598-7.073 2.397-12.162 2.397-4.262 0-7.812-.799-10.653-2.397-2.841-1.657-5.12-4.054-6.836-7.191-1.716-3.195-2.959-7.072-3.728-11.629-.77-4.557-1.154-9.795-1.154-15.713V88.015c0-6.155.443-11.511 1.331-16.068.947-4.617 2.338-8.434 4.173-11.452 1.893-3.078 4.29-5.386 7.19-6.924 2.959-1.54 6.481-2.309 10.564-2.309 4.913 0 8.819.859 11.719 2.575 2.959 1.716 5.148 4.527 6.569 8.433 1.479 3.847 2.367 8.996 2.663 15.447h21.483c-.532-9.528-2.456-17.607-5.77-24.235-3.314-6.629-8.019-11.66-14.115-15.092-6.096-3.432-13.612-5.149-22.549-5.149-6.983 0-13.257 1.243-18.82 3.729-5.504 2.426-10.179 6.007-14.026 10.742-3.847 4.734-6.806 10.504-8.877 17.31-2.013 6.806-3.019 14.53-3.019 23.17v22.904c0 8.641.977 16.364 2.93 23.17 2.012 6.806 4.912 12.576 8.7 17.311 3.787 4.675 8.374 8.256 13.76 10.742 5.444 2.485 11.599 3.728 18.465 3.728 9.055 0 16.719-1.716 22.992-5.149 6.333-3.432 11.186-8.404 14.559-14.914 3.373-6.569 5.267-14.529 5.682-23.88Z"/><path fill="#000" fill-rule="evenodd" d="M766.307 27.915h9.942V81.52a34.569 34.569 0 0 1 3.374-5.136c2.544-3.195 5.563-5.651 9.055-7.368 3.491-1.716 7.575-2.574 12.25-2.574 4.972 0 9.381.858 13.228 2.574 3.847 1.717 7.102 4.38 9.765 7.99 2.663 3.61 4.675 8.315 6.036 14.115 1.362 5.74 2.042 12.635 2.042 20.684v8.966c0 7.753-.68 14.471-2.042 20.152-1.361 5.682-3.373 10.387-6.036 14.115-2.663 3.729-5.918 6.51-9.765 8.345-3.788 1.835-8.138 2.752-13.05 2.752-4.794 0-8.996-.858-12.606-2.575a26.726 26.726 0 0 1-9.232-7.19 34.08 34.08 0 0 1-3.244-4.826l-.485 12.727h-9.232V27.915Zm9.942 65.062v47.807a40.334 40.334 0 0 0 2.042 4.135c2.012 3.492 4.735 6.332 8.167 8.522 3.433 2.131 7.635 3.196 12.606 3.196 4.025 0 7.457-.71 10.298-2.13 2.9-1.48 5.297-3.699 7.191-6.659 1.893-2.959 3.284-6.658 4.172-11.096.888-4.498 1.332-9.825 1.332-15.98v-8.966c0-6.096-.444-11.392-1.332-15.89-.829-4.557-2.19-8.315-4.084-11.275-1.834-2.959-4.231-5.148-7.19-6.569-2.9-1.48-6.422-2.22-10.564-2.22-4.084 0-7.605.77-10.565 2.309-2.899 1.48-5.326 3.462-7.279 5.948a32.358 32.358 0 0 0-4.527 8.167c-.091.234-.18.467-.267.7Zm-46.833 64.903c2.223-2.172 4.085-4.479 5.586-6.922.073 1.756.193 3.56.361 5.413.296 3.196.77 5.829 1.421 7.901h10.475v-1.154c-.769-2.249-1.391-5.149-1.864-8.7a89.681 89.681 0 0 1-.621-10.387V94.939c0-6.924-1.273-12.487-3.818-16.69-2.485-4.201-5.948-7.22-10.386-9.054-4.439-1.835-9.529-2.752-15.269-2.752-4.676 0-8.937.77-12.784 2.308-3.788 1.539-7.043 3.64-9.765 6.303a27.461 27.461 0 0 0-6.303 9.055 26.019 26.019 0 0 0-2.219 10.564l9.854.089c0-3.729.858-7.013 2.574-9.854 1.776-2.9 4.232-5.15 7.368-6.747 3.196-1.657 6.836-2.486 10.919-2.486 4.321 0 7.961.651 10.92 1.953 2.959 1.302 5.208 3.374 6.746 6.215 1.539 2.781 2.309 6.42 2.309 10.919v13.405h-16.246c-6.037 0-11.333.769-15.891 2.308-4.557 1.538-8.344 3.699-11.363 6.48-3.018 2.723-5.296 5.948-6.835 9.677-1.48 3.728-2.22 7.812-2.22 12.25 0 5.978 1.066 11.008 3.196 15.092 2.19 4.083 5.238 7.131 9.144 9.144 3.965 2.012 8.582 3.018 13.849 3.018 4.379 0 8.315-.769 11.807-2.308 3.491-1.539 6.51-3.522 9.055-5.948Zm2.219-12.073c1.374-1.89 2.469-3.839 3.285-5.847V116.6h-14.737c-4.616 0-8.67.503-12.162 1.509-3.492 1.006-6.421 2.456-8.789 4.35-2.308 1.894-4.054 4.143-5.237 6.747-1.184 2.604-1.776 5.563-1.776 8.877 0 4.261.681 7.753 2.042 10.476 1.361 2.663 3.344 4.645 5.948 5.948 2.663 1.242 5.829 1.864 9.499 1.864 4.853 0 9.114-.947 12.783-2.841 3.729-1.953 6.777-4.527 9.144-7.723Z" clip-rule="evenodd"/><path fill="#000" d="M672.551 164.272v-9.499h-53.087V35.017h-10.298v129.255h63.385Z"/></svg>