<svg xmlns="http://www.w3.org/2000/svg" width="740" height="200" fill="none"><g fill="#000" clip-path="url(#a)"><path fill-rule="evenodd" d="M65.34 78.69a39.06 39.06 0 1 1 69.001 2.63L102.821 136l9.45 16.37 36.28-62.84A55.429 55.429 0 0 0 86.196 8.718 55.43 55.43 0 0 0 52.551 34.1a54.79 54.79 0 0 0-4.66 45.09 61.997 61.997 0 0 1 7.62-.48l9.83-.02Zm127.151 31.8a54.792 54.792 0 0 0-37.28-26.69 61.775 61.775 0 0 1-3.39 6.87l-4.94 8.55a39.061 39.061 0 1 1-22.181 72.665 39.068 39.068 0 0 1-14.039-14.145l-31.47-54.5H60.3l36.18 62.68a58.042 58.042 0 0 0 4.13 6.16l.3.39a54.741 54.741 0 0 0 43.57 21.16 55.426 55.426 0 0 0 47.997-27.715 55.431 55.431 0 0 0 .003-55.425h.01ZM73.557 172.852A39.049 39.049 0 0 0 88.15 159.66l4.79 8.34a59.43 59.43 0 0 0 4.42 6.57 54.764 54.764 0 0 1-41.85 19.06 55.425 55.425 0 0 1-51.883-34.041A55.428 55.428 0 0 1 34.07 86.783a55.431 55.431 0 0 1 21.44-4.003H128l-9.42 16.36H55.51a39.07 39.07 0 0 0-20.012 72.612 39.055 39.055 0 0 0 38.06 1.1Z" clip-rule="evenodd"/><path d="m336.163 162.02-2.88-13.68-1.44-.54a7.517 7.517 0 0 1-4.14 1.26c-2.88 0-5.4-1.62-8.46-5.04l-25.92-30.42 35.64-38.34-.54-1.26h-21.06l-37.26 41.04V42.32l-1.44-1.08-18.18 2.7V164h19.62v-29.88l8.82-9.54 25.38 30.6c5.4 6.66 12.24 10.98 20.88 10.98 4.5 0 7.92-1.08 10.26-2.7l.72-1.44Z"/><path fill-rule="evenodd" d="M592.442 71.84c27.36 0 45.9 20.88 45.9 47.16 0 26.28-18.54 47.16-45.9 47.16-12.78 0-23.58-5.22-31.32-13.14V164h-17.64V44.12l18.36-2.7 1.26.9v40.86c7.56-7.02 17.64-11.34 29.34-11.34Zm-2.34 77.22c16.92 0 28.08-13.32 28.08-30.06 0-16.56-11.16-30.06-28.08-30.06-15.84 0-28.44 10.44-28.44 30.06 0 19.62 12.6 30.06 28.44 30.06Zm146.319-.54 2.88 13.32-.72 1.26c-2.52 1.8-6.3 3.06-10.8 3.06-8.1 0-14.04-4.32-16.38-11.7-7.74 7.38-18.9 11.7-30.78 11.7-18.54 0-35.64-10.26-35.64-29.7 0-19.98 18-29.16 40.14-29.16 9.72 0 17.28 1.8 23.76 4.14v-5.04c0-12.96-11.7-19.26-24.12-19.26-10.26 0-18.18 4.32-24.48 10.44h-1.44l-9.9-9.36v-1.44c9.72-9.36 22.14-14.94 37.62-14.94 19.44 0 41.58 8.64 41.58 34.56v34.74c0 4.86.9 7.92 4.14 7.92 1.26 0 2.16-.54 2.88-1.08l1.26.54Zm-27.54-17.1v-6.66c-4.68-1.8-12.42-4.14-21.24-4.14-14.22 0-23.04 6.12-23.04 15.84 0 10.26 9.72 15.3 19.98 15.3 12.42 0 24.3-7.74 24.3-20.34Z" clip-rule="evenodd"/><path d="M525.775 109.82c0-22.5-14.58-37.98-37.44-37.98-12.06 0-22.32 4.32-29.34 11.34-2.34-7.2-7.92-11.34-16.2-11.34-4.68 0-8.64 1.26-11.16 3.06l-.72 1.26 2.88 13.32 1.26.54c.72-.54 1.62-1.08 2.88-1.08 3.42 0 4.14 3.06 4.14 7.92V164h19.8v-52.56c0-13.68 9.18-22.68 22.68-22.68s21.6 9 21.6 22.68V164h19.62v-54.18Z"/><path fill-rule="evenodd" d="m426.02 148.52 2.88 13.32-.72 1.26c-2.52 1.8-6.3 3.06-10.8 3.06-8.1 0-14.04-4.32-16.38-11.7-7.74 7.38-18.9 11.7-30.78 11.7-18.54 0-35.64-10.26-35.64-29.7 0-19.98 18-29.16 40.14-29.16 9.72 0 17.28 1.8 23.76 4.14v-5.04c0-12.96-11.7-19.26-24.12-19.26-10.26 0-18.18 4.32-24.48 10.44h-1.44l-9.9-9.36v-1.44c9.72-9.36 22.14-14.94 37.62-14.94 19.44 0 41.58 8.64 41.58 34.56v34.74c0 4.86.9 7.92 4.14 7.92 1.26 0 2.16-.54 2.88-1.08l1.26.54Zm-27.54-17.1v-6.66c-4.68-1.8-12.42-4.14-21.24-4.14-14.22 0-23.04 6.12-23.04 15.84 0 10.26 9.72 15.3 19.98 15.3 12.42 0 24.3-7.74 24.3-20.34Z" clip-rule="evenodd"/></g><defs><clipPath id="a"><path fill="#fff" d="M0 0h740v200H0z"/></clipPath></defs></svg>